G04 #@! TF.FileFunction,Copper,L2,Bot,Plane*
%FSLAX46Y46*%
G04 Gerber Fmt 4.6, Leading zero omitted, Abs format (unit mm)*
G04 Created by KiCad (PCBNEW 4.0.6) date 12/30/17 12:21:30*
%MOMM*%
%LPD*%
G01*
G04 APERTURE LIST*
%ADD10C,0.150000*%
%ADD11C,0.020000*%
%ADD12R,1.700000X1.700000*%
%ADD13O,1.700000X1.700000*%
%ADD14R,1.950000X2.200000*%
%ADD15R,1.950000X1.800000*%
%ADD16R,1.200000X1.700000*%
%ADD17R,0.400000X1.700000*%
%ADD18C,0.609600*%
%ADD19C,0.203200*%
%ADD20C,0.254000*%
G04 APERTURE END LIST*
D10*
D11*
X211994140Y-150647480D02*
X211994140Y-150797340D01*
X215867640Y-139217480D02*
X220630140Y-139217480D01*
X215867640Y-143027480D02*
X215867640Y-139217480D01*
X208146040Y-143027480D02*
X215867640Y-143027480D01*
X208146040Y-139217480D02*
X208146040Y-143027480D01*
X220630140Y-150647480D02*
X203358140Y-150647480D01*
X220630140Y-139217480D02*
X220630140Y-150647480D01*
X203358140Y-139217480D02*
X208146040Y-139217480D01*
X203358140Y-150647480D02*
X203358140Y-139217480D01*
D12*
X205635860Y-148142960D03*
D13*
X208175860Y-148142960D03*
X210715860Y-148142960D03*
X213255860Y-148142960D03*
X215795860Y-148142960D03*
X218335860Y-148142960D03*
D14*
X207106180Y-140732680D03*
D15*
X207106180Y-143132680D03*
D16*
X214356180Y-144632680D03*
D15*
X216906180Y-143132680D03*
D14*
X216906180Y-140732680D03*
D16*
X209656180Y-144632680D03*
D17*
X210706180Y-144632680D03*
X211356180Y-144632680D03*
X212006180Y-144632680D03*
X212656180Y-144632680D03*
X213306180Y-144632680D03*
D18*
X208685496Y-144660422D03*
X215310064Y-144683947D03*
D19*
X210706180Y-144632680D02*
X210706180Y-145546955D01*
X210706180Y-145546955D02*
X209366584Y-146886551D01*
X209366584Y-146886551D02*
X205839069Y-146886551D01*
X205839069Y-146886551D02*
X205635860Y-147089760D01*
X205635860Y-147089760D02*
X205635860Y-148142960D01*
X211356180Y-144632680D02*
X211356180Y-145581322D01*
X211356180Y-145581322D02*
X209383887Y-147553615D01*
X209383887Y-147553615D02*
X208765205Y-147553615D01*
X208765205Y-147553615D02*
X208175860Y-148142960D01*
X212006180Y-144632680D02*
X212006180Y-146852640D01*
X212006180Y-146852640D02*
X210715860Y-148142960D01*
X212656180Y-144632680D02*
X212656180Y-147543280D01*
X212656180Y-147543280D02*
X213255860Y-148142960D01*
X213306180Y-144632680D02*
X213306180Y-145685880D01*
X213306180Y-145685880D02*
X215763260Y-148142960D01*
X215763260Y-148142960D02*
X215795860Y-148142960D01*
X209656180Y-144632680D02*
X208713238Y-144632680D01*
X208685496Y-144636996D02*
X208685496Y-144660422D01*
X207181180Y-143132680D02*
X208685496Y-144636996D01*
X207106180Y-143132680D02*
X207181180Y-143132680D01*
X208713238Y-144632680D02*
X208685496Y-144660422D01*
X216906180Y-143132680D02*
X216831180Y-143132680D01*
X216831180Y-143132680D02*
X215310064Y-144653796D01*
X214356180Y-144632680D02*
X215258797Y-144632680D01*
X215310064Y-145117164D02*
X215310064Y-144683947D01*
X218335860Y-148142960D02*
X215310064Y-145117164D01*
X215310064Y-144653796D02*
X215310064Y-144683947D01*
X215258797Y-144632680D02*
X215310064Y-144683947D01*
X207106180Y-143132680D02*
X207106180Y-140732680D01*
X216906180Y-143132680D02*
X216906180Y-140732680D01*
D20*
G36*
X205491897Y-141832680D02*
X205530911Y-142040022D01*
X205491897Y-142232680D01*
X205491897Y-144032680D01*
X205535617Y-144265032D01*
X205672937Y-144478433D01*
X205882463Y-144621597D01*
X206131180Y-144671963D01*
X207018641Y-144671963D01*
X207018499Y-144835073D01*
X207160058Y-145177673D01*
X207421949Y-145440021D01*
X207764300Y-145582178D01*
X208134993Y-145582501D01*
X208416897Y-145466021D01*
X208416897Y-145482680D01*
X208460617Y-145715032D01*
X208597937Y-145928433D01*
X208807463Y-146071597D01*
X209056180Y-146121963D01*
X209135143Y-146121963D01*
X209099155Y-146157951D01*
X205839069Y-146157951D01*
X205560246Y-146213412D01*
X205323871Y-146371353D01*
X205120662Y-146574562D01*
X205067799Y-146653677D01*
X204785860Y-146653677D01*
X204553508Y-146697397D01*
X204340107Y-146834717D01*
X204196943Y-147044243D01*
X204146577Y-147292960D01*
X204146577Y-148992960D01*
X204190297Y-149225312D01*
X204327617Y-149438713D01*
X204537143Y-149581877D01*
X204785860Y-149632243D01*
X206485860Y-149632243D01*
X206718212Y-149588523D01*
X206931613Y-149451203D01*
X207074777Y-149241677D01*
X207097275Y-149130578D01*
X207408936Y-149414605D01*
X207818970Y-149584436D01*
X208048860Y-149463115D01*
X208048860Y-148269960D01*
X208028860Y-148269960D01*
X208028860Y-148015960D01*
X208048860Y-148015960D01*
X208048860Y-147995960D01*
X208302860Y-147995960D01*
X208302860Y-148015960D01*
X208322860Y-148015960D01*
X208322860Y-148269960D01*
X208302860Y-148269960D01*
X208302860Y-149463115D01*
X208532750Y-149584436D01*
X208942784Y-149414605D01*
X209371043Y-149024318D01*
X209442096Y-148873021D01*
X209671463Y-149216293D01*
X210150637Y-149536466D01*
X210715860Y-149648896D01*
X211281083Y-149536466D01*
X211760257Y-149216293D01*
X211985860Y-148878653D01*
X212211463Y-149216293D01*
X212690637Y-149536466D01*
X213255860Y-149648896D01*
X213821083Y-149536466D01*
X214300257Y-149216293D01*
X214525860Y-148878653D01*
X214751463Y-149216293D01*
X215230637Y-149536466D01*
X215795860Y-149648896D01*
X216361083Y-149536466D01*
X216840257Y-149216293D01*
X217065860Y-148878653D01*
X217291463Y-149216293D01*
X217770637Y-149536466D01*
X218335860Y-149648896D01*
X218901083Y-149536466D01*
X219380257Y-149216293D01*
X219700430Y-148737119D01*
X219812860Y-148171896D01*
X219812860Y-148114024D01*
X219700430Y-147548801D01*
X219380257Y-147069627D01*
X219064460Y-146858619D01*
X219064460Y-146620920D01*
X219008999Y-146342097D01*
X218851058Y-146105722D01*
X217417299Y-144671963D01*
X217881180Y-144671963D01*
X218113532Y-144628243D01*
X218326933Y-144490923D01*
X218470097Y-144281397D01*
X218520463Y-144032680D01*
X218520463Y-142232680D01*
X218481449Y-142025338D01*
X218520463Y-141832680D01*
X218520463Y-139854480D01*
X219993140Y-139854480D01*
X219993140Y-150010480D01*
X203995140Y-150010480D01*
X203995140Y-139854480D01*
X205491897Y-139854480D01*
X205491897Y-141832680D01*
X205491897Y-141832680D01*
G37*
X205491897Y-141832680D02*
X205530911Y-142040022D01*
X205491897Y-142232680D01*
X205491897Y-144032680D01*
X205535617Y-144265032D01*
X205672937Y-144478433D01*
X205882463Y-144621597D01*
X206131180Y-144671963D01*
X207018641Y-144671963D01*
X207018499Y-144835073D01*
X207160058Y-145177673D01*
X207421949Y-145440021D01*
X207764300Y-145582178D01*
X208134993Y-145582501D01*
X208416897Y-145466021D01*
X208416897Y-145482680D01*
X208460617Y-145715032D01*
X208597937Y-145928433D01*
X208807463Y-146071597D01*
X209056180Y-146121963D01*
X209135143Y-146121963D01*
X209099155Y-146157951D01*
X205839069Y-146157951D01*
X205560246Y-146213412D01*
X205323871Y-146371353D01*
X205120662Y-146574562D01*
X205067799Y-146653677D01*
X204785860Y-146653677D01*
X204553508Y-146697397D01*
X204340107Y-146834717D01*
X204196943Y-147044243D01*
X204146577Y-147292960D01*
X204146577Y-148992960D01*
X204190297Y-149225312D01*
X204327617Y-149438713D01*
X204537143Y-149581877D01*
X204785860Y-149632243D01*
X206485860Y-149632243D01*
X206718212Y-149588523D01*
X206931613Y-149451203D01*
X207074777Y-149241677D01*
X207097275Y-149130578D01*
X207408936Y-149414605D01*
X207818970Y-149584436D01*
X208048860Y-149463115D01*
X208048860Y-148269960D01*
X208028860Y-148269960D01*
X208028860Y-148015960D01*
X208048860Y-148015960D01*
X208048860Y-147995960D01*
X208302860Y-147995960D01*
X208302860Y-148015960D01*
X208322860Y-148015960D01*
X208322860Y-148269960D01*
X208302860Y-148269960D01*
X208302860Y-149463115D01*
X208532750Y-149584436D01*
X208942784Y-149414605D01*
X209371043Y-149024318D01*
X209442096Y-148873021D01*
X209671463Y-149216293D01*
X210150637Y-149536466D01*
X210715860Y-149648896D01*
X211281083Y-149536466D01*
X211760257Y-149216293D01*
X211985860Y-148878653D01*
X212211463Y-149216293D01*
X212690637Y-149536466D01*
X213255860Y-149648896D01*
X213821083Y-149536466D01*
X214300257Y-149216293D01*
X214525860Y-148878653D01*
X214751463Y-149216293D01*
X215230637Y-149536466D01*
X215795860Y-149648896D01*
X216361083Y-149536466D01*
X216840257Y-149216293D01*
X217065860Y-148878653D01*
X217291463Y-149216293D01*
X217770637Y-149536466D01*
X218335860Y-149648896D01*
X218901083Y-149536466D01*
X219380257Y-149216293D01*
X219700430Y-148737119D01*
X219812860Y-148171896D01*
X219812860Y-148114024D01*
X219700430Y-147548801D01*
X219380257Y-147069627D01*
X219064460Y-146858619D01*
X219064460Y-146620920D01*
X219008999Y-146342097D01*
X218851058Y-146105722D01*
X217417299Y-144671963D01*
X217881180Y-144671963D01*
X218113532Y-144628243D01*
X218326933Y-144490923D01*
X218470097Y-144281397D01*
X218520463Y-144032680D01*
X218520463Y-142232680D01*
X218481449Y-142025338D01*
X218520463Y-141832680D01*
X218520463Y-139854480D01*
X219993140Y-139854480D01*
X219993140Y-150010480D01*
X203995140Y-150010480D01*
X203995140Y-139854480D01*
X205491897Y-139854480D01*
X205491897Y-141832680D01*
M02*
