G04 #@! TF.FileFunction,Legend,Top*
%FSLAX46Y46*%
G04 Gerber Fmt 4.6, Leading zero omitted, Abs format (unit mm)*
G04 Created by KiCad (PCBNEW 4.0.6) date 12/30/17 12:21:30*
%MOMM*%
%LPD*%
G01*
G04 APERTURE LIST*
%ADD10C,0.150000*%
%ADD11C,0.127000*%
%ADD12C,0.020000*%
G04 APERTURE END LIST*
D10*
D11*
X204382310Y-145755482D02*
X203874310Y-145755482D01*
X204237167Y-145586148D01*
X203874310Y-145416815D01*
X204382310Y-145416815D01*
X204382310Y-145174911D02*
X204043643Y-145174911D01*
X203874310Y-145174911D02*
X203898500Y-145199101D01*
X203922690Y-145174911D01*
X203898500Y-145150720D01*
X203874310Y-145174911D01*
X203922690Y-145174911D01*
X204358119Y-144715291D02*
X204382310Y-144763672D01*
X204382310Y-144860434D01*
X204358119Y-144908815D01*
X204333929Y-144933006D01*
X204285548Y-144957196D01*
X204140405Y-144957196D01*
X204092024Y-144933006D01*
X204067833Y-144908815D01*
X204043643Y-144860434D01*
X204043643Y-144763672D01*
X204067833Y-144715291D01*
X204382310Y-144497577D02*
X204043643Y-144497577D01*
X204140405Y-144497577D02*
X204092024Y-144473386D01*
X204067833Y-144449196D01*
X204043643Y-144400815D01*
X204043643Y-144352434D01*
X204382310Y-144110529D02*
X204358119Y-144158910D01*
X204333929Y-144183101D01*
X204285548Y-144207291D01*
X204140405Y-144207291D01*
X204092024Y-144183101D01*
X204067833Y-144158910D01*
X204043643Y-144110529D01*
X204043643Y-144037958D01*
X204067833Y-143989577D01*
X204092024Y-143965386D01*
X204140405Y-143941196D01*
X204285548Y-143941196D01*
X204333929Y-143965386D01*
X204358119Y-143989577D01*
X204382310Y-144037958D01*
X204382310Y-144110529D01*
X203874310Y-143336434D02*
X204285548Y-143336434D01*
X204333929Y-143312243D01*
X204358119Y-143288053D01*
X204382310Y-143239672D01*
X204382310Y-143142910D01*
X204358119Y-143094529D01*
X204333929Y-143070338D01*
X204285548Y-143046148D01*
X203874310Y-143046148D01*
X204358119Y-142828434D02*
X204382310Y-142755863D01*
X204382310Y-142634910D01*
X204358119Y-142586529D01*
X204333929Y-142562339D01*
X204285548Y-142538148D01*
X204237167Y-142538148D01*
X204188786Y-142562339D01*
X204164595Y-142586529D01*
X204140405Y-142634910D01*
X204116214Y-142731672D01*
X204092024Y-142780053D01*
X204067833Y-142804244D01*
X204019452Y-142828434D01*
X203971071Y-142828434D01*
X203922690Y-142804244D01*
X203898500Y-142780053D01*
X203874310Y-142731672D01*
X203874310Y-142610720D01*
X203898500Y-142538148D01*
X204116214Y-142151100D02*
X204140405Y-142078529D01*
X204164595Y-142054338D01*
X204212976Y-142030148D01*
X204285548Y-142030148D01*
X204333929Y-142054338D01*
X204358119Y-142078529D01*
X204382310Y-142126910D01*
X204382310Y-142320434D01*
X203874310Y-142320434D01*
X203874310Y-142151100D01*
X203898500Y-142102719D01*
X203922690Y-142078529D01*
X203971071Y-142054338D01*
X204019452Y-142054338D01*
X204067833Y-142078529D01*
X204092024Y-142102719D01*
X204116214Y-142151100D01*
X204116214Y-142320434D01*
X204043643Y-141473767D02*
X204382310Y-141352814D01*
X204043643Y-141231862D01*
X203874310Y-140941576D02*
X203874310Y-140893195D01*
X203898500Y-140844814D01*
X203922690Y-140820623D01*
X203971071Y-140796433D01*
X204067833Y-140772242D01*
X204188786Y-140772242D01*
X204285548Y-140796433D01*
X204333929Y-140820623D01*
X204358119Y-140844814D01*
X204382310Y-140893195D01*
X204382310Y-140941576D01*
X204358119Y-140989957D01*
X204333929Y-141014147D01*
X204285548Y-141038338D01*
X204188786Y-141062528D01*
X204067833Y-141062528D01*
X203971071Y-141038338D01*
X203922690Y-141014147D01*
X203898500Y-140989957D01*
X203874310Y-140941576D01*
X204333929Y-140554528D02*
X204358119Y-140530337D01*
X204382310Y-140554528D01*
X204358119Y-140578718D01*
X204333929Y-140554528D01*
X204382310Y-140554528D01*
X204382310Y-140046527D02*
X204382310Y-140336813D01*
X204382310Y-140191670D02*
X203874310Y-140191670D01*
X203946881Y-140240051D01*
X203995262Y-140288432D01*
X204019452Y-140336813D01*
X204763310Y-145005577D02*
X204763310Y-144715291D01*
X205271310Y-144860434D02*
X204763310Y-144860434D01*
X205271310Y-144304053D02*
X205271310Y-144545958D01*
X204763310Y-144545958D01*
X205247119Y-143771862D02*
X205271310Y-143699291D01*
X205271310Y-143578338D01*
X205247119Y-143529957D01*
X205222929Y-143505767D01*
X205174548Y-143481576D01*
X205126167Y-143481576D01*
X205077786Y-143505767D01*
X205053595Y-143529957D01*
X205029405Y-143578338D01*
X205005214Y-143675100D01*
X204981024Y-143723481D01*
X204956833Y-143747672D01*
X204908452Y-143771862D01*
X204860071Y-143771862D01*
X204811690Y-143747672D01*
X204787500Y-143723481D01*
X204763310Y-143675100D01*
X204763310Y-143554148D01*
X204787500Y-143481576D01*
X204932643Y-143312243D02*
X205271310Y-143191290D01*
X204932643Y-143070338D02*
X205271310Y-143191290D01*
X205392262Y-143239671D01*
X205416452Y-143263862D01*
X205440643Y-143312243D01*
X205247119Y-142901004D02*
X205271310Y-142852623D01*
X205271310Y-142755861D01*
X205247119Y-142707480D01*
X205198738Y-142683290D01*
X205174548Y-142683290D01*
X205126167Y-142707480D01*
X205101976Y-142755861D01*
X205101976Y-142828433D01*
X205077786Y-142876814D01*
X205029405Y-142901004D01*
X205005214Y-142901004D01*
X204956833Y-142876814D01*
X204932643Y-142828433D01*
X204932643Y-142755861D01*
X204956833Y-142707480D01*
X204932643Y-142538147D02*
X204932643Y-142344623D01*
X204763310Y-142465576D02*
X205198738Y-142465576D01*
X205247119Y-142441385D01*
X205271310Y-142393004D01*
X205271310Y-142344623D01*
X205247119Y-141981766D02*
X205271310Y-142030147D01*
X205271310Y-142126909D01*
X205247119Y-142175290D01*
X205198738Y-142199480D01*
X205005214Y-142199480D01*
X204956833Y-142175290D01*
X204932643Y-142126909D01*
X204932643Y-142030147D01*
X204956833Y-141981766D01*
X205005214Y-141957575D01*
X205053595Y-141957575D01*
X205101976Y-142199480D01*
X205271310Y-141739861D02*
X204932643Y-141739861D01*
X204981024Y-141739861D02*
X204956833Y-141715670D01*
X204932643Y-141667289D01*
X204932643Y-141594718D01*
X204956833Y-141546337D01*
X205005214Y-141522146D01*
X205271310Y-141522146D01*
X205005214Y-141522146D02*
X204956833Y-141497956D01*
X204932643Y-141449575D01*
X204932643Y-141377003D01*
X204956833Y-141328623D01*
X205005214Y-141304432D01*
X205271310Y-141304432D01*
X205247119Y-141086718D02*
X205271310Y-141038337D01*
X205271310Y-140941575D01*
X205247119Y-140893194D01*
X205198738Y-140869004D01*
X205174548Y-140869004D01*
X205126167Y-140893194D01*
X205101976Y-140941575D01*
X205101976Y-141014147D01*
X205077786Y-141062528D01*
X205029405Y-141086718D01*
X205005214Y-141086718D01*
X204956833Y-141062528D01*
X204932643Y-141014147D01*
X204932643Y-140941575D01*
X204956833Y-140893194D01*
D12*
X211994140Y-150647480D02*
X211994140Y-150797340D01*
X215867640Y-139217480D02*
X220630140Y-139217480D01*
X215867640Y-143027480D02*
X215867640Y-139217480D01*
X208146040Y-143027480D02*
X215867640Y-143027480D01*
X208146040Y-139217480D02*
X208146040Y-143027480D01*
X220630140Y-150647480D02*
X203358140Y-150647480D01*
X220630140Y-139217480D02*
X220630140Y-150647480D01*
X203358140Y-139217480D02*
X208146040Y-139217480D01*
X203358140Y-150647480D02*
X203358140Y-139217480D01*
M02*
