G04 #@! TF.FileFunction,Copper,L1,Top,Signal*
%FSLAX46Y46*%
G04 Gerber Fmt 4.6, Leading zero omitted, Abs format (unit mm)*
G04 Created by KiCad (PCBNEW 4.0.6) date 11/25/17 14:25:30*
%MOMM*%
%LPD*%
G01*
G04 APERTURE LIST*
%ADD10C,0.100000*%
%ADD11C,1.600000*%
%ADD12C,1.700000*%
%ADD13C,3.600000*%
%ADD14R,1.700000X1.700000*%
%ADD15O,1.700000X1.700000*%
%ADD16R,1.200000X0.750000*%
%ADD17C,0.609600*%
%ADD18C,0.203200*%
%ADD19C,0.254000*%
G04 APERTURE END LIST*
D10*
D11*
X106694600Y-100762900D03*
X106694600Y-104762900D03*
D12*
X121194600Y-102762900D03*
D13*
X113694600Y-108362900D03*
D12*
X121194600Y-105262900D03*
X121194600Y-100262900D03*
D11*
X106694600Y-102762900D03*
X106694600Y-98762900D03*
X106694600Y-106762900D03*
D13*
X113594600Y-97162900D03*
D14*
X118901600Y-92666400D03*
D15*
X116361600Y-92666400D03*
X113821600Y-92666400D03*
X111281600Y-92666400D03*
X108741600Y-92666400D03*
D16*
X128995600Y-105366400D03*
X127095600Y-105366400D03*
D14*
X118907570Y-112977492D03*
D15*
X116367570Y-112977492D03*
X113827570Y-112977492D03*
X111287570Y-112977492D03*
X108747570Y-112977492D03*
D17*
X131855600Y-98063900D03*
X130014100Y-96349400D03*
X127093100Y-104413900D03*
X131855600Y-107461900D03*
X129950600Y-109303400D03*
X123949007Y-98032993D03*
X125569100Y-98063900D03*
X125569100Y-107398400D03*
X114137496Y-105456696D03*
X128883508Y-98988758D03*
X130903100Y-105810900D03*
X128885540Y-106531716D03*
X111208028Y-102902239D03*
X110691341Y-106237093D03*
X110066681Y-109049400D03*
X129569600Y-101111900D03*
X129228616Y-104248639D03*
X113677627Y-101840589D03*
X122711600Y-101810400D03*
D18*
X130014100Y-96349400D02*
X131728600Y-98063900D01*
X131728600Y-98063900D02*
X131855600Y-98063900D01*
X127095600Y-105366400D02*
X127095600Y-104416400D01*
X127095600Y-104416400D02*
X127093100Y-104413900D01*
X129950600Y-109303400D02*
X131792100Y-107461900D01*
X131792100Y-107461900D02*
X131855600Y-107461900D01*
X125569100Y-98063900D02*
X123979914Y-98063900D01*
X123979914Y-98063900D02*
X123949007Y-98032993D01*
X125569100Y-107398400D02*
X123520600Y-107398400D01*
X123520600Y-107398400D02*
X121194600Y-105072400D01*
X128995600Y-105366400D02*
X130458600Y-105366400D01*
X130458600Y-105366400D02*
X130903100Y-105810900D01*
X128885540Y-106531716D02*
X128885540Y-105476460D01*
X128885540Y-105476460D02*
X128995600Y-105366400D01*
X116361600Y-112986400D02*
X115008342Y-111633142D01*
X115008342Y-111633142D02*
X113303303Y-111633142D01*
X111759966Y-103454177D02*
X111512827Y-103207038D01*
X113303303Y-111633142D02*
X111195514Y-109525353D01*
X111195514Y-109525353D02*
X111195514Y-106726215D01*
X111195514Y-106726215D02*
X111759966Y-106161763D01*
X111759966Y-106161763D02*
X111759966Y-103454177D01*
X111512827Y-103207038D02*
X111208028Y-102902239D01*
X110691341Y-106668145D02*
X110691341Y-106237093D01*
X110691341Y-109856141D02*
X110691341Y-106668145D01*
X113821600Y-112986400D02*
X110691341Y-109856141D01*
X110066681Y-111771481D02*
X110066681Y-109480452D01*
X111281600Y-112986400D02*
X110066681Y-111771481D01*
X110066681Y-109480452D02*
X110066681Y-109049400D01*
X116361600Y-92666400D02*
X117527011Y-93831811D01*
X129569600Y-101111900D02*
X126165808Y-101111900D01*
X126165808Y-101111900D02*
X118885719Y-93831811D01*
X118885719Y-93831811D02*
X117527011Y-93831811D01*
X128727796Y-104248639D02*
X128797564Y-104248639D01*
X118717379Y-94238222D02*
X128727796Y-104248639D01*
X115393422Y-94238222D02*
X118717379Y-94238222D01*
X113821600Y-92666400D02*
X115393422Y-94238222D01*
X128797564Y-104248639D02*
X129228616Y-104248639D01*
X107695411Y-101840589D02*
X113246575Y-101840589D01*
X106836600Y-102699400D02*
X107695411Y-101840589D01*
X113246575Y-101840589D02*
X113677627Y-101840589D01*
X122711600Y-98807194D02*
X118549039Y-94644633D01*
X114298593Y-93821201D02*
X112436401Y-93821201D01*
X122711600Y-101810400D02*
X122711600Y-98807194D01*
X118549039Y-94644633D02*
X115122025Y-94644633D01*
X115122025Y-94644633D02*
X114298593Y-93821201D01*
X112436401Y-93821201D02*
X112131599Y-93516399D01*
X112131599Y-93516399D02*
X111281600Y-92666400D01*
D19*
G36*
X107369639Y-92069022D02*
X107256600Y-92637307D01*
X107256600Y-92695493D01*
X107369639Y-93263778D01*
X107691546Y-93745547D01*
X108173315Y-94067454D01*
X108741600Y-94180493D01*
X109309885Y-94067454D01*
X109791654Y-93745547D01*
X110011600Y-93416374D01*
X110231546Y-93745547D01*
X110713315Y-94067454D01*
X111281600Y-94180493D01*
X111675610Y-94102120D01*
X111915546Y-94342056D01*
X112154516Y-94501731D01*
X112436401Y-94557801D01*
X113993483Y-94557801D01*
X114222894Y-94787212D01*
X114081076Y-94728324D01*
X113112374Y-94727479D01*
X112217086Y-95097404D01*
X111531512Y-95781783D01*
X111160024Y-96676424D01*
X111159179Y-97645126D01*
X111529104Y-98540414D01*
X112213483Y-99225988D01*
X113108124Y-99597476D01*
X114076826Y-99598321D01*
X114972114Y-99228396D01*
X115657688Y-98544017D01*
X116029176Y-97649376D01*
X116030021Y-96680674D01*
X115660096Y-95785386D01*
X115256647Y-95381233D01*
X118243929Y-95381233D01*
X121747065Y-98884369D01*
X121491281Y-98778158D01*
X120900511Y-98777643D01*
X120354514Y-99003244D01*
X119936412Y-99420617D01*
X119709858Y-99966219D01*
X119709343Y-100556989D01*
X119934944Y-101102986D01*
X120344492Y-101513249D01*
X119936412Y-101920617D01*
X119709858Y-102466219D01*
X119709343Y-103056989D01*
X119934944Y-103602986D01*
X120344492Y-104013249D01*
X119936412Y-104420617D01*
X119709858Y-104966219D01*
X119709343Y-105556989D01*
X119934944Y-106102986D01*
X120352317Y-106521088D01*
X120897919Y-106747642D01*
X121488689Y-106748157D01*
X121729250Y-106648760D01*
X122999745Y-107919255D01*
X123238715Y-108078930D01*
X123520600Y-108135000D01*
X124976496Y-108135000D01*
X125036051Y-108194659D01*
X125381342Y-108338037D01*
X125755218Y-108338363D01*
X126100759Y-108195588D01*
X126365359Y-107931449D01*
X126508737Y-107586158D01*
X126509063Y-107212282D01*
X126366288Y-106866741D01*
X126102149Y-106602141D01*
X125756858Y-106458763D01*
X125382982Y-106458437D01*
X125037441Y-106601212D01*
X124976747Y-106661800D01*
X123825710Y-106661800D01*
X122679380Y-105515470D01*
X122679857Y-104968811D01*
X122454256Y-104422814D01*
X122044708Y-104012551D01*
X122452788Y-103605183D01*
X122679342Y-103059581D01*
X122679612Y-102750173D01*
X122897718Y-102750363D01*
X123243259Y-102607588D01*
X123507859Y-102343449D01*
X123651237Y-101998158D01*
X123651563Y-101624282D01*
X123508788Y-101278741D01*
X123448200Y-101218047D01*
X123448200Y-100010753D01*
X126911388Y-103473941D01*
X126906982Y-103473937D01*
X126561441Y-103616712D01*
X126296841Y-103880851D01*
X126153463Y-104226142D01*
X126153262Y-104457104D01*
X126044159Y-104527310D01*
X125899169Y-104739510D01*
X125848160Y-104991400D01*
X125848160Y-105741400D01*
X125892438Y-105976717D01*
X126031510Y-106192841D01*
X126243710Y-106337831D01*
X126495600Y-106388840D01*
X127695600Y-106388840D01*
X127930917Y-106344562D01*
X128034246Y-106278071D01*
X128035902Y-106279727D01*
X128269291Y-106376400D01*
X128709850Y-106376400D01*
X128868600Y-106217650D01*
X128868600Y-105493400D01*
X129122600Y-105493400D01*
X129122600Y-106217650D01*
X129281350Y-106376400D01*
X129721909Y-106376400D01*
X129955298Y-106279727D01*
X130133927Y-106101099D01*
X130230600Y-105867710D01*
X130230600Y-105652150D01*
X130071850Y-105493400D01*
X129122600Y-105493400D01*
X128868600Y-105493400D01*
X128848600Y-105493400D01*
X128848600Y-105239400D01*
X128868600Y-105239400D01*
X128868600Y-105219400D01*
X129122600Y-105219400D01*
X129122600Y-105239400D01*
X130071850Y-105239400D01*
X130230600Y-105080650D01*
X130230600Y-104865090D01*
X130133927Y-104631701D01*
X130100878Y-104598653D01*
X130168253Y-104436397D01*
X130168579Y-104062521D01*
X130025804Y-103716980D01*
X129761665Y-103452380D01*
X129416374Y-103309002D01*
X129042498Y-103308676D01*
X128891807Y-103370940D01*
X127369367Y-101848500D01*
X128976996Y-101848500D01*
X129036551Y-101908159D01*
X129381842Y-102051537D01*
X129755718Y-102051863D01*
X130101259Y-101909088D01*
X130365859Y-101644949D01*
X130509237Y-101299658D01*
X130509563Y-100925782D01*
X130366788Y-100580241D01*
X130102649Y-100315641D01*
X129757358Y-100172263D01*
X129383482Y-100171937D01*
X129037941Y-100314712D01*
X128977247Y-100375300D01*
X126470918Y-100375300D01*
X124896118Y-98800500D01*
X124976496Y-98800500D01*
X125036051Y-98860159D01*
X125381342Y-99003537D01*
X125755218Y-99003863D01*
X126100759Y-98861088D01*
X126365359Y-98596949D01*
X126508737Y-98251658D01*
X126509063Y-97877782D01*
X126366288Y-97532241D01*
X126102149Y-97267641D01*
X125756858Y-97124263D01*
X125382982Y-97123937D01*
X125037441Y-97266712D01*
X124976747Y-97327300D01*
X124572464Y-97327300D01*
X124482056Y-97236734D01*
X124136765Y-97093356D01*
X123762889Y-97093030D01*
X123417348Y-97235805D01*
X123374348Y-97278730D01*
X120125807Y-94030189D01*
X120203041Y-93980490D01*
X120348031Y-93768290D01*
X120399040Y-93516400D01*
X120399040Y-91852400D01*
X132161600Y-91852400D01*
X132161600Y-97173362D01*
X132043358Y-97124263D01*
X131830487Y-97124077D01*
X130953989Y-96247579D01*
X130954063Y-96163282D01*
X130811288Y-95817741D01*
X130547149Y-95553141D01*
X130201858Y-95409763D01*
X129827982Y-95409437D01*
X129482441Y-95552212D01*
X129217841Y-95816351D01*
X129074463Y-96161642D01*
X129074137Y-96535518D01*
X129216912Y-96881059D01*
X129481051Y-97145659D01*
X129826342Y-97289037D01*
X129912102Y-97289112D01*
X130945654Y-98322664D01*
X131058412Y-98595559D01*
X131322551Y-98860159D01*
X131667842Y-99003537D01*
X132041718Y-99003863D01*
X132161600Y-98954329D01*
X132161600Y-106571362D01*
X132043358Y-106522263D01*
X131669482Y-106521937D01*
X131323941Y-106664712D01*
X131059341Y-106928851D01*
X130915963Y-107274142D01*
X130915944Y-107296346D01*
X129848779Y-108363511D01*
X129764482Y-108363437D01*
X129418941Y-108506212D01*
X129154341Y-108770351D01*
X129010963Y-109115642D01*
X129010637Y-109489518D01*
X129153412Y-109835059D01*
X129417551Y-110099659D01*
X129762842Y-110243037D01*
X130136718Y-110243363D01*
X130482259Y-110100588D01*
X130746859Y-109836449D01*
X130890237Y-109491158D01*
X130890312Y-109405398D01*
X131893976Y-108401734D01*
X132041718Y-108401863D01*
X132161600Y-108352329D01*
X132161600Y-113800400D01*
X120392570Y-113800400D01*
X120392570Y-113263242D01*
X120233820Y-113104492D01*
X119034570Y-113104492D01*
X119034570Y-113124492D01*
X118780570Y-113124492D01*
X118780570Y-113104492D01*
X118760570Y-113104492D01*
X118760570Y-112850492D01*
X118780570Y-112850492D01*
X118780570Y-111651242D01*
X119034570Y-111651242D01*
X119034570Y-112850492D01*
X120233820Y-112850492D01*
X120392570Y-112691742D01*
X120392570Y-112001183D01*
X120295897Y-111767794D01*
X120117269Y-111589165D01*
X119883880Y-111492492D01*
X119193320Y-111492492D01*
X119034570Y-111651242D01*
X118780570Y-111651242D01*
X118621820Y-111492492D01*
X117931260Y-111492492D01*
X117697871Y-111589165D01*
X117519243Y-111767794D01*
X117446973Y-111942269D01*
X117417624Y-111898345D01*
X116935855Y-111576438D01*
X116367570Y-111463399D01*
X115961151Y-111544241D01*
X115529197Y-111112287D01*
X115290227Y-110952612D01*
X115008342Y-110896542D01*
X113608413Y-110896542D01*
X113509610Y-110797739D01*
X114176826Y-110798321D01*
X115072114Y-110428396D01*
X115757688Y-109744017D01*
X116129176Y-108849376D01*
X116130021Y-107880674D01*
X115760096Y-106985386D01*
X115075717Y-106299812D01*
X114181076Y-105928324D01*
X113212374Y-105927479D01*
X112483242Y-106228750D01*
X112496566Y-106161763D01*
X112496566Y-103454177D01*
X112440496Y-103172292D01*
X112280821Y-102933322D01*
X112147917Y-102800418D01*
X112147991Y-102716121D01*
X112090585Y-102577189D01*
X113085023Y-102577189D01*
X113144578Y-102636848D01*
X113489869Y-102780226D01*
X113863745Y-102780552D01*
X114209286Y-102637777D01*
X114473886Y-102373638D01*
X114617264Y-102028347D01*
X114617590Y-101654471D01*
X114474815Y-101308930D01*
X114210676Y-101044330D01*
X113865385Y-100900952D01*
X113491509Y-100900626D01*
X113145968Y-101043401D01*
X113085274Y-101103989D01*
X108106762Y-101103989D01*
X108129350Y-101049591D01*
X108129848Y-100478713D01*
X107911843Y-99951100D01*
X107742088Y-99781048D01*
X107817222Y-99705914D01*
X107702347Y-99591039D01*
X107948464Y-99516905D01*
X108141565Y-98979677D01*
X108114378Y-98409446D01*
X107948464Y-98008895D01*
X107702345Y-97934761D01*
X106874205Y-98762900D01*
X106888348Y-98777042D01*
X106708743Y-98956648D01*
X106694600Y-98942505D01*
X106680458Y-98956648D01*
X106500852Y-98777042D01*
X106514995Y-98762900D01*
X105686855Y-97934761D01*
X105641600Y-97948392D01*
X105641600Y-97755155D01*
X105866461Y-97755155D01*
X106694600Y-98583295D01*
X107522739Y-97755155D01*
X107448605Y-97509036D01*
X106911377Y-97315935D01*
X106341146Y-97343122D01*
X105940595Y-97509036D01*
X105866461Y-97755155D01*
X105641600Y-97755155D01*
X105641600Y-91852400D01*
X107514381Y-91852400D01*
X107369639Y-92069022D01*
X107369639Y-92069022D01*
G37*
X107369639Y-92069022D02*
X107256600Y-92637307D01*
X107256600Y-92695493D01*
X107369639Y-93263778D01*
X107691546Y-93745547D01*
X108173315Y-94067454D01*
X108741600Y-94180493D01*
X109309885Y-94067454D01*
X109791654Y-93745547D01*
X110011600Y-93416374D01*
X110231546Y-93745547D01*
X110713315Y-94067454D01*
X111281600Y-94180493D01*
X111675610Y-94102120D01*
X111915546Y-94342056D01*
X112154516Y-94501731D01*
X112436401Y-94557801D01*
X113993483Y-94557801D01*
X114222894Y-94787212D01*
X114081076Y-94728324D01*
X113112374Y-94727479D01*
X112217086Y-95097404D01*
X111531512Y-95781783D01*
X111160024Y-96676424D01*
X111159179Y-97645126D01*
X111529104Y-98540414D01*
X112213483Y-99225988D01*
X113108124Y-99597476D01*
X114076826Y-99598321D01*
X114972114Y-99228396D01*
X115657688Y-98544017D01*
X116029176Y-97649376D01*
X116030021Y-96680674D01*
X115660096Y-95785386D01*
X115256647Y-95381233D01*
X118243929Y-95381233D01*
X121747065Y-98884369D01*
X121491281Y-98778158D01*
X120900511Y-98777643D01*
X120354514Y-99003244D01*
X119936412Y-99420617D01*
X119709858Y-99966219D01*
X119709343Y-100556989D01*
X119934944Y-101102986D01*
X120344492Y-101513249D01*
X119936412Y-101920617D01*
X119709858Y-102466219D01*
X119709343Y-103056989D01*
X119934944Y-103602986D01*
X120344492Y-104013249D01*
X119936412Y-104420617D01*
X119709858Y-104966219D01*
X119709343Y-105556989D01*
X119934944Y-106102986D01*
X120352317Y-106521088D01*
X120897919Y-106747642D01*
X121488689Y-106748157D01*
X121729250Y-106648760D01*
X122999745Y-107919255D01*
X123238715Y-108078930D01*
X123520600Y-108135000D01*
X124976496Y-108135000D01*
X125036051Y-108194659D01*
X125381342Y-108338037D01*
X125755218Y-108338363D01*
X126100759Y-108195588D01*
X126365359Y-107931449D01*
X126508737Y-107586158D01*
X126509063Y-107212282D01*
X126366288Y-106866741D01*
X126102149Y-106602141D01*
X125756858Y-106458763D01*
X125382982Y-106458437D01*
X125037441Y-106601212D01*
X124976747Y-106661800D01*
X123825710Y-106661800D01*
X122679380Y-105515470D01*
X122679857Y-104968811D01*
X122454256Y-104422814D01*
X122044708Y-104012551D01*
X122452788Y-103605183D01*
X122679342Y-103059581D01*
X122679612Y-102750173D01*
X122897718Y-102750363D01*
X123243259Y-102607588D01*
X123507859Y-102343449D01*
X123651237Y-101998158D01*
X123651563Y-101624282D01*
X123508788Y-101278741D01*
X123448200Y-101218047D01*
X123448200Y-100010753D01*
X126911388Y-103473941D01*
X126906982Y-103473937D01*
X126561441Y-103616712D01*
X126296841Y-103880851D01*
X126153463Y-104226142D01*
X126153262Y-104457104D01*
X126044159Y-104527310D01*
X125899169Y-104739510D01*
X125848160Y-104991400D01*
X125848160Y-105741400D01*
X125892438Y-105976717D01*
X126031510Y-106192841D01*
X126243710Y-106337831D01*
X126495600Y-106388840D01*
X127695600Y-106388840D01*
X127930917Y-106344562D01*
X128034246Y-106278071D01*
X128035902Y-106279727D01*
X128269291Y-106376400D01*
X128709850Y-106376400D01*
X128868600Y-106217650D01*
X128868600Y-105493400D01*
X129122600Y-105493400D01*
X129122600Y-106217650D01*
X129281350Y-106376400D01*
X129721909Y-106376400D01*
X129955298Y-106279727D01*
X130133927Y-106101099D01*
X130230600Y-105867710D01*
X130230600Y-105652150D01*
X130071850Y-105493400D01*
X129122600Y-105493400D01*
X128868600Y-105493400D01*
X128848600Y-105493400D01*
X128848600Y-105239400D01*
X128868600Y-105239400D01*
X128868600Y-105219400D01*
X129122600Y-105219400D01*
X129122600Y-105239400D01*
X130071850Y-105239400D01*
X130230600Y-105080650D01*
X130230600Y-104865090D01*
X130133927Y-104631701D01*
X130100878Y-104598653D01*
X130168253Y-104436397D01*
X130168579Y-104062521D01*
X130025804Y-103716980D01*
X129761665Y-103452380D01*
X129416374Y-103309002D01*
X129042498Y-103308676D01*
X128891807Y-103370940D01*
X127369367Y-101848500D01*
X128976996Y-101848500D01*
X129036551Y-101908159D01*
X129381842Y-102051537D01*
X129755718Y-102051863D01*
X130101259Y-101909088D01*
X130365859Y-101644949D01*
X130509237Y-101299658D01*
X130509563Y-100925782D01*
X130366788Y-100580241D01*
X130102649Y-100315641D01*
X129757358Y-100172263D01*
X129383482Y-100171937D01*
X129037941Y-100314712D01*
X128977247Y-100375300D01*
X126470918Y-100375300D01*
X124896118Y-98800500D01*
X124976496Y-98800500D01*
X125036051Y-98860159D01*
X125381342Y-99003537D01*
X125755218Y-99003863D01*
X126100759Y-98861088D01*
X126365359Y-98596949D01*
X126508737Y-98251658D01*
X126509063Y-97877782D01*
X126366288Y-97532241D01*
X126102149Y-97267641D01*
X125756858Y-97124263D01*
X125382982Y-97123937D01*
X125037441Y-97266712D01*
X124976747Y-97327300D01*
X124572464Y-97327300D01*
X124482056Y-97236734D01*
X124136765Y-97093356D01*
X123762889Y-97093030D01*
X123417348Y-97235805D01*
X123374348Y-97278730D01*
X120125807Y-94030189D01*
X120203041Y-93980490D01*
X120348031Y-93768290D01*
X120399040Y-93516400D01*
X120399040Y-91852400D01*
X132161600Y-91852400D01*
X132161600Y-97173362D01*
X132043358Y-97124263D01*
X131830487Y-97124077D01*
X130953989Y-96247579D01*
X130954063Y-96163282D01*
X130811288Y-95817741D01*
X130547149Y-95553141D01*
X130201858Y-95409763D01*
X129827982Y-95409437D01*
X129482441Y-95552212D01*
X129217841Y-95816351D01*
X129074463Y-96161642D01*
X129074137Y-96535518D01*
X129216912Y-96881059D01*
X129481051Y-97145659D01*
X129826342Y-97289037D01*
X129912102Y-97289112D01*
X130945654Y-98322664D01*
X131058412Y-98595559D01*
X131322551Y-98860159D01*
X131667842Y-99003537D01*
X132041718Y-99003863D01*
X132161600Y-98954329D01*
X132161600Y-106571362D01*
X132043358Y-106522263D01*
X131669482Y-106521937D01*
X131323941Y-106664712D01*
X131059341Y-106928851D01*
X130915963Y-107274142D01*
X130915944Y-107296346D01*
X129848779Y-108363511D01*
X129764482Y-108363437D01*
X129418941Y-108506212D01*
X129154341Y-108770351D01*
X129010963Y-109115642D01*
X129010637Y-109489518D01*
X129153412Y-109835059D01*
X129417551Y-110099659D01*
X129762842Y-110243037D01*
X130136718Y-110243363D01*
X130482259Y-110100588D01*
X130746859Y-109836449D01*
X130890237Y-109491158D01*
X130890312Y-109405398D01*
X131893976Y-108401734D01*
X132041718Y-108401863D01*
X132161600Y-108352329D01*
X132161600Y-113800400D01*
X120392570Y-113800400D01*
X120392570Y-113263242D01*
X120233820Y-113104492D01*
X119034570Y-113104492D01*
X119034570Y-113124492D01*
X118780570Y-113124492D01*
X118780570Y-113104492D01*
X118760570Y-113104492D01*
X118760570Y-112850492D01*
X118780570Y-112850492D01*
X118780570Y-111651242D01*
X119034570Y-111651242D01*
X119034570Y-112850492D01*
X120233820Y-112850492D01*
X120392570Y-112691742D01*
X120392570Y-112001183D01*
X120295897Y-111767794D01*
X120117269Y-111589165D01*
X119883880Y-111492492D01*
X119193320Y-111492492D01*
X119034570Y-111651242D01*
X118780570Y-111651242D01*
X118621820Y-111492492D01*
X117931260Y-111492492D01*
X117697871Y-111589165D01*
X117519243Y-111767794D01*
X117446973Y-111942269D01*
X117417624Y-111898345D01*
X116935855Y-111576438D01*
X116367570Y-111463399D01*
X115961151Y-111544241D01*
X115529197Y-111112287D01*
X115290227Y-110952612D01*
X115008342Y-110896542D01*
X113608413Y-110896542D01*
X113509610Y-110797739D01*
X114176826Y-110798321D01*
X115072114Y-110428396D01*
X115757688Y-109744017D01*
X116129176Y-108849376D01*
X116130021Y-107880674D01*
X115760096Y-106985386D01*
X115075717Y-106299812D01*
X114181076Y-105928324D01*
X113212374Y-105927479D01*
X112483242Y-106228750D01*
X112496566Y-106161763D01*
X112496566Y-103454177D01*
X112440496Y-103172292D01*
X112280821Y-102933322D01*
X112147917Y-102800418D01*
X112147991Y-102716121D01*
X112090585Y-102577189D01*
X113085023Y-102577189D01*
X113144578Y-102636848D01*
X113489869Y-102780226D01*
X113863745Y-102780552D01*
X114209286Y-102637777D01*
X114473886Y-102373638D01*
X114617264Y-102028347D01*
X114617590Y-101654471D01*
X114474815Y-101308930D01*
X114210676Y-101044330D01*
X113865385Y-100900952D01*
X113491509Y-100900626D01*
X113145968Y-101043401D01*
X113085274Y-101103989D01*
X108106762Y-101103989D01*
X108129350Y-101049591D01*
X108129848Y-100478713D01*
X107911843Y-99951100D01*
X107742088Y-99781048D01*
X107817222Y-99705914D01*
X107702347Y-99591039D01*
X107948464Y-99516905D01*
X108141565Y-98979677D01*
X108114378Y-98409446D01*
X107948464Y-98008895D01*
X107702345Y-97934761D01*
X106874205Y-98762900D01*
X106888348Y-98777042D01*
X106708743Y-98956648D01*
X106694600Y-98942505D01*
X106680458Y-98956648D01*
X106500852Y-98777042D01*
X106514995Y-98762900D01*
X105686855Y-97934761D01*
X105641600Y-97948392D01*
X105641600Y-97755155D01*
X105866461Y-97755155D01*
X106694600Y-98583295D01*
X107522739Y-97755155D01*
X107448605Y-97509036D01*
X106911377Y-97315935D01*
X106341146Y-97343122D01*
X105940595Y-97509036D01*
X105866461Y-97755155D01*
X105641600Y-97755155D01*
X105641600Y-91852400D01*
X107514381Y-91852400D01*
X107369639Y-92069022D01*
M02*
