G04 #@! TF.FileFunction,Legend,Top*
%FSLAX46Y46*%
G04 Gerber Fmt 4.6, Leading zero omitted, Abs format (unit mm)*
G04 Created by KiCad (PCBNEW 4.0.6) date 11/25/17 14:25:30*
%MOMM*%
%LPD*%
G01*
G04 APERTURE LIST*
%ADD10C,0.100000*%
%ADD11C,0.152400*%
%ADD12C,0.150000*%
%ADD13C,0.120000*%
G04 APERTURE END LIST*
D10*
D11*
X119681743Y-95269900D02*
X119778505Y-95318281D01*
X119923648Y-95318281D01*
X120068790Y-95269900D01*
X120165552Y-95173138D01*
X120213933Y-95076376D01*
X120262314Y-94882852D01*
X120262314Y-94737710D01*
X120213933Y-94544186D01*
X120165552Y-94447424D01*
X120068790Y-94350662D01*
X119923648Y-94302281D01*
X119826886Y-94302281D01*
X119681743Y-94350662D01*
X119633362Y-94399043D01*
X119633362Y-94737710D01*
X119826886Y-94737710D01*
X119197933Y-94979614D02*
X119197933Y-94302281D01*
X119197933Y-94882852D02*
X119149552Y-94931233D01*
X119052790Y-94979614D01*
X118907648Y-94979614D01*
X118810886Y-94931233D01*
X118762505Y-94834471D01*
X118762505Y-94302281D01*
X117843267Y-94302281D02*
X117843267Y-95318281D01*
X117843267Y-94350662D02*
X117940029Y-94302281D01*
X118133552Y-94302281D01*
X118230314Y-94350662D01*
X118278695Y-94399043D01*
X118327076Y-94495805D01*
X118327076Y-94786090D01*
X118278695Y-94882852D01*
X118230314Y-94931233D01*
X118133552Y-94979614D01*
X117940029Y-94979614D01*
X117843267Y-94931233D01*
X112167576Y-94414162D02*
X112022433Y-94365781D01*
X111780529Y-94365781D01*
X111683767Y-94414162D01*
X111635386Y-94462543D01*
X111587005Y-94559305D01*
X111587005Y-94656067D01*
X111635386Y-94752829D01*
X111683767Y-94801210D01*
X111780529Y-94849590D01*
X111974052Y-94897971D01*
X112070814Y-94946352D01*
X112119195Y-94994733D01*
X112167576Y-95091495D01*
X112167576Y-95188257D01*
X112119195Y-95285019D01*
X112070814Y-95333400D01*
X111974052Y-95381781D01*
X111732148Y-95381781D01*
X111587005Y-95333400D01*
X111248338Y-95043114D02*
X111054814Y-94365781D01*
X110861291Y-94849590D01*
X110667767Y-94365781D01*
X110474243Y-95043114D01*
X116397886Y-94916114D02*
X116216457Y-94855638D01*
X116155981Y-94795162D01*
X116095505Y-94674210D01*
X116095505Y-94492781D01*
X116155981Y-94371829D01*
X116216457Y-94311352D01*
X116337410Y-94250876D01*
X116821219Y-94250876D01*
X116821219Y-95520876D01*
X116397886Y-95520876D01*
X116276933Y-95460400D01*
X116216457Y-95399924D01*
X116155981Y-95278971D01*
X116155981Y-95158019D01*
X116216457Y-95037067D01*
X116276933Y-94976590D01*
X116397886Y-94916114D01*
X116821219Y-94916114D01*
X113996980Y-94613733D02*
X113392218Y-94613733D01*
X114117933Y-94250876D02*
X113694599Y-95520876D01*
X113271266Y-94250876D01*
X109394743Y-95333400D02*
X109491505Y-95381781D01*
X109636648Y-95381781D01*
X109781790Y-95333400D01*
X109878552Y-95236638D01*
X109926933Y-95139876D01*
X109975314Y-94946352D01*
X109975314Y-94801210D01*
X109926933Y-94607686D01*
X109878552Y-94510924D01*
X109781790Y-94414162D01*
X109636648Y-94365781D01*
X109539886Y-94365781D01*
X109394743Y-94414162D01*
X109346362Y-94462543D01*
X109346362Y-94801210D01*
X109539886Y-94801210D01*
X108910933Y-95043114D02*
X108910933Y-94365781D01*
X108910933Y-94946352D02*
X108862552Y-94994733D01*
X108765790Y-95043114D01*
X108620648Y-95043114D01*
X108523886Y-94994733D01*
X108475505Y-94897971D01*
X108475505Y-94365781D01*
X107556267Y-94365781D02*
X107556267Y-95381781D01*
X107556267Y-94414162D02*
X107653029Y-94365781D01*
X107846552Y-94365781D01*
X107943314Y-94414162D01*
X107991695Y-94462543D01*
X108040076Y-94559305D01*
X108040076Y-94849590D01*
X107991695Y-94946352D01*
X107943314Y-94994733D01*
X107846552Y-95043114D01*
X107653029Y-95043114D01*
X107556267Y-94994733D01*
X111801695Y-111401924D02*
X111378362Y-110797162D01*
X111075981Y-111401924D02*
X111075981Y-110131924D01*
X111559790Y-110131924D01*
X111680743Y-110192400D01*
X111741219Y-110252876D01*
X111801695Y-110373829D01*
X111801695Y-110555257D01*
X111741219Y-110676210D01*
X111680743Y-110736686D01*
X111559790Y-110797162D01*
X111075981Y-110797162D01*
X114090719Y-110192400D02*
X113969767Y-110131924D01*
X113788338Y-110131924D01*
X113606910Y-110192400D01*
X113485957Y-110313352D01*
X113425481Y-110434305D01*
X113365005Y-110676210D01*
X113365005Y-110857638D01*
X113425481Y-111099543D01*
X113485957Y-111220495D01*
X113606910Y-111341448D01*
X113788338Y-111401924D01*
X113909290Y-111401924D01*
X114090719Y-111341448D01*
X114151195Y-111280971D01*
X114151195Y-110857638D01*
X113909290Y-110857638D01*
X116452314Y-110736686D02*
X116633743Y-110797162D01*
X116694219Y-110857638D01*
X116754695Y-110978590D01*
X116754695Y-111160019D01*
X116694219Y-111280971D01*
X116633743Y-111341448D01*
X116512790Y-111401924D01*
X116028981Y-111401924D01*
X116028981Y-110131924D01*
X116452314Y-110131924D01*
X116573267Y-110192400D01*
X116633743Y-110252876D01*
X116694219Y-110373829D01*
X116694219Y-110494781D01*
X116633743Y-110615733D01*
X116573267Y-110676210D01*
X116452314Y-110736686D01*
X116028981Y-110736686D01*
X108088457Y-110319400D02*
X107991695Y-110271019D01*
X107846552Y-110271019D01*
X107701410Y-110319400D01*
X107604648Y-110416162D01*
X107556267Y-110512924D01*
X107507886Y-110706448D01*
X107507886Y-110851590D01*
X107556267Y-111045114D01*
X107604648Y-111141876D01*
X107701410Y-111238638D01*
X107846552Y-111287019D01*
X107943314Y-111287019D01*
X108088457Y-111238638D01*
X108136838Y-111190257D01*
X108136838Y-110851590D01*
X107943314Y-110851590D01*
X108572267Y-110609686D02*
X108572267Y-111287019D01*
X108572267Y-110706448D02*
X108620648Y-110658067D01*
X108717410Y-110609686D01*
X108862552Y-110609686D01*
X108959314Y-110658067D01*
X109007695Y-110754829D01*
X109007695Y-111287019D01*
X109926933Y-111287019D02*
X109926933Y-110271019D01*
X109926933Y-111238638D02*
X109830171Y-111287019D01*
X109636648Y-111287019D01*
X109539886Y-111238638D01*
X109491505Y-111190257D01*
X109443124Y-111093495D01*
X109443124Y-110803210D01*
X109491505Y-110706448D01*
X109539886Y-110658067D01*
X109636648Y-110609686D01*
X109830171Y-110609686D01*
X109926933Y-110658067D01*
X117819077Y-110271019D02*
X118157744Y-111287019D01*
X118496410Y-110271019D01*
X119270505Y-111238638D02*
X119173743Y-111287019D01*
X118980220Y-111287019D01*
X118883458Y-111238638D01*
X118835077Y-111190257D01*
X118786696Y-111093495D01*
X118786696Y-110803210D01*
X118835077Y-110706448D01*
X118883458Y-110658067D01*
X118980220Y-110609686D01*
X119173743Y-110609686D01*
X119270505Y-110658067D01*
X120141362Y-111238638D02*
X120044600Y-111287019D01*
X119851077Y-111287019D01*
X119754315Y-111238638D01*
X119705934Y-111190257D01*
X119657553Y-111093495D01*
X119657553Y-110803210D01*
X119705934Y-110706448D01*
X119754315Y-110658067D01*
X119851077Y-110609686D01*
X120044600Y-110609686D01*
X120141362Y-110658067D01*
D12*
X107694600Y-95762900D02*
X107694600Y-109762900D01*
X120194600Y-95762900D02*
X107694600Y-95762900D01*
X120194600Y-109762900D02*
X120194600Y-95762900D01*
X107694600Y-109762900D02*
X120194600Y-109762900D01*
D13*
X128395600Y-105966400D02*
X127695600Y-105966400D01*
X127695600Y-104766400D02*
X128395600Y-104766400D01*
D12*
X105877124Y-96531971D02*
X106210458Y-96531971D01*
X106353315Y-97055781D02*
X105877124Y-97055781D01*
X105877124Y-96055781D01*
X106353315Y-96055781D01*
X107305696Y-97055781D02*
X106734267Y-97055781D01*
X107019981Y-97055781D02*
X107019981Y-96055781D01*
X106924743Y-96198638D01*
X106829505Y-96293876D01*
X106734267Y-96341495D01*
X119023171Y-100191471D02*
X119070790Y-100048614D01*
X119118410Y-100000995D01*
X119213648Y-99953376D01*
X119356505Y-99953376D01*
X119451743Y-100000995D01*
X119499362Y-100048614D01*
X119546981Y-100143852D01*
X119546981Y-100524805D01*
X118546981Y-100524805D01*
X118546981Y-100191471D01*
X118594600Y-100096233D01*
X118642219Y-100048614D01*
X118737457Y-100000995D01*
X118832695Y-100000995D01*
X118927933Y-100048614D01*
X118975552Y-100096233D01*
X119023171Y-100191471D01*
X119023171Y-100524805D01*
X119451743Y-102453376D02*
X119499362Y-102500995D01*
X119546981Y-102643852D01*
X119546981Y-102739090D01*
X119499362Y-102881948D01*
X119404124Y-102977186D01*
X119308886Y-103024805D01*
X119118410Y-103072424D01*
X118975552Y-103072424D01*
X118785076Y-103024805D01*
X118689838Y-102977186D01*
X118594600Y-102881948D01*
X118546981Y-102739090D01*
X118546981Y-102643852D01*
X118594600Y-102500995D01*
X118642219Y-102453376D01*
X119261267Y-105500995D02*
X119261267Y-105024804D01*
X119546981Y-105596233D02*
X118546981Y-105262900D01*
X119546981Y-104929566D01*
X108623171Y-100691471D02*
X108670790Y-100548614D01*
X108718410Y-100500995D01*
X108813648Y-100453376D01*
X108956505Y-100453376D01*
X109051743Y-100500995D01*
X109099362Y-100548614D01*
X109146981Y-100643852D01*
X109146981Y-101024805D01*
X108146981Y-101024805D01*
X108146981Y-100691471D01*
X108194600Y-100596233D01*
X108242219Y-100548614D01*
X108337457Y-100500995D01*
X108432695Y-100500995D01*
X108527933Y-100548614D01*
X108575552Y-100596233D01*
X108623171Y-100691471D01*
X108623171Y-101024805D01*
X109146981Y-106453376D02*
X108670790Y-106786710D01*
X109146981Y-107024805D02*
X108146981Y-107024805D01*
X108146981Y-106643852D01*
X108194600Y-106548614D01*
X108242219Y-106500995D01*
X108337457Y-106453376D01*
X108480314Y-106453376D01*
X108575552Y-106500995D01*
X108623171Y-106548614D01*
X108670790Y-106643852D01*
X108670790Y-107024805D01*
X108194600Y-104500995D02*
X108146981Y-104596233D01*
X108146981Y-104739090D01*
X108194600Y-104881948D01*
X108289838Y-104977186D01*
X108385076Y-105024805D01*
X108575552Y-105072424D01*
X108718410Y-105072424D01*
X108908886Y-105024805D01*
X109004124Y-104977186D01*
X109099362Y-104881948D01*
X109146981Y-104739090D01*
X109146981Y-104643852D01*
X109099362Y-104500995D01*
X109051743Y-104453376D01*
X108718410Y-104453376D01*
X108718410Y-104643852D01*
X109099362Y-103572424D02*
X109146981Y-103429567D01*
X109146981Y-103191471D01*
X109099362Y-103096233D01*
X109051743Y-103048614D01*
X108956505Y-103000995D01*
X108861267Y-103000995D01*
X108766029Y-103048614D01*
X108718410Y-103096233D01*
X108670790Y-103191471D01*
X108623171Y-103381948D01*
X108575552Y-103477186D01*
X108527933Y-103524805D01*
X108432695Y-103572424D01*
X108337457Y-103572424D01*
X108242219Y-103524805D01*
X108194600Y-103477186D01*
X108146981Y-103381948D01*
X108146981Y-103143852D01*
X108194600Y-103000995D01*
X108480314Y-102667662D02*
X109146981Y-102477186D01*
X108670790Y-102286709D01*
X109146981Y-102096233D01*
X108480314Y-101905757D01*
X108711429Y-99143852D02*
X108711429Y-98381947D01*
X109092381Y-98762899D02*
X108330476Y-98762899D01*
X127878934Y-106973543D02*
X127831315Y-107021162D01*
X127688458Y-107068781D01*
X127593220Y-107068781D01*
X127450362Y-107021162D01*
X127355124Y-106925924D01*
X127307505Y-106830686D01*
X127259886Y-106640210D01*
X127259886Y-106497352D01*
X127307505Y-106306876D01*
X127355124Y-106211638D01*
X127450362Y-106116400D01*
X127593220Y-106068781D01*
X127688458Y-106068781D01*
X127831315Y-106116400D01*
X127878934Y-106164019D01*
X128736077Y-106402114D02*
X128736077Y-107068781D01*
X128497981Y-106021162D02*
X128259886Y-106735448D01*
X128878934Y-106735448D01*
M02*
