G04 #@! TF.FileFunction,Paste,Bot*
%FSLAX46Y46*%
G04 Gerber Fmt 4.6, Leading zero omitted, Abs format (unit mm)*
G04 Created by KiCad (PCBNEW 4.0.6) date 11/25/17 14:25:30*
%MOMM*%
%LPD*%
G01*
G04 APERTURE LIST*
%ADD10C,0.100000*%
%ADD11R,0.900000X1.200000*%
%ADD12R,1.200000X0.400000*%
%ADD13R,1.200000X0.900000*%
%ADD14R,1.200000X0.750000*%
G04 APERTURE END LIST*
D10*
D11*
X113950600Y-103715400D03*
X117250600Y-103715400D03*
D12*
X123960600Y-105030400D03*
X123960600Y-104380400D03*
X123960600Y-103730400D03*
X123960600Y-103080400D03*
X123960600Y-102430400D03*
X123960600Y-101780400D03*
X123960600Y-101130400D03*
X130860600Y-101130400D03*
X130860600Y-101780400D03*
X130860600Y-102430400D03*
X130860600Y-103080400D03*
X130860600Y-103730400D03*
X130860600Y-104380400D03*
X130860600Y-105030400D03*
D13*
X126691600Y-96349400D03*
X128891600Y-96349400D03*
X126691600Y-98000400D03*
X128891600Y-98000400D03*
D14*
X128741600Y-92539400D03*
X126841600Y-92539400D03*
D11*
X128679600Y-94444400D03*
X125379600Y-94444400D03*
X128679600Y-111208400D03*
X125379600Y-111208400D03*
D13*
X126691600Y-109303400D03*
X128891600Y-109303400D03*
D14*
X128741600Y-113113400D03*
X126841600Y-113113400D03*
X115350600Y-105620400D03*
X117250600Y-105620400D03*
D13*
X126691600Y-107652400D03*
X128891600Y-107652400D03*
X115050600Y-101810400D03*
X117250600Y-101810400D03*
X115050600Y-100159400D03*
X117250600Y-100159400D03*
X110984600Y-100540400D03*
X108784600Y-100540400D03*
X110984600Y-104604400D03*
X108784600Y-104604400D03*
X108825600Y-109049400D03*
X106625600Y-109049400D03*
M02*
