G04 #@! TF.FileFunction,Legend,Bot*
%FSLAX46Y46*%
G04 Gerber Fmt 4.6, Leading zero omitted, Abs format (unit mm)*
G04 Created by KiCad (PCBNEW 4.0.6) date 11/25/17 14:25:30*
%MOMM*%
%LPD*%
G01*
G04 APERTURE LIST*
%ADD10C,0.100000*%
%ADD11C,0.152400*%
%ADD12C,0.150000*%
%ADD13C,0.120000*%
G04 APERTURE END LIST*
D10*
D11*
X118375457Y-95269900D02*
X118278695Y-95318281D01*
X118133552Y-95318281D01*
X117988410Y-95269900D01*
X117891648Y-95173138D01*
X117843267Y-95076376D01*
X117794886Y-94882852D01*
X117794886Y-94737710D01*
X117843267Y-94544186D01*
X117891648Y-94447424D01*
X117988410Y-94350662D01*
X118133552Y-94302281D01*
X118230314Y-94302281D01*
X118375457Y-94350662D01*
X118423838Y-94399043D01*
X118423838Y-94737710D01*
X118230314Y-94737710D01*
X118859267Y-94979614D02*
X118859267Y-94302281D01*
X118859267Y-94882852D02*
X118907648Y-94931233D01*
X119004410Y-94979614D01*
X119149552Y-94979614D01*
X119246314Y-94931233D01*
X119294695Y-94834471D01*
X119294695Y-94302281D01*
X120213933Y-94302281D02*
X120213933Y-95318281D01*
X120213933Y-94350662D02*
X120117171Y-94302281D01*
X119923648Y-94302281D01*
X119826886Y-94350662D01*
X119778505Y-94399043D01*
X119730124Y-94495805D01*
X119730124Y-94786090D01*
X119778505Y-94882852D01*
X119826886Y-94931233D01*
X119923648Y-94979614D01*
X120117171Y-94979614D01*
X120213933Y-94931233D01*
X116579314Y-94916114D02*
X116760743Y-94855638D01*
X116821219Y-94795162D01*
X116881695Y-94674210D01*
X116881695Y-94492781D01*
X116821219Y-94371829D01*
X116760743Y-94311352D01*
X116639790Y-94250876D01*
X116155981Y-94250876D01*
X116155981Y-95520876D01*
X116579314Y-95520876D01*
X116700267Y-95460400D01*
X116760743Y-95399924D01*
X116821219Y-95278971D01*
X116821219Y-95158019D01*
X116760743Y-95037067D01*
X116700267Y-94976590D01*
X116579314Y-94916114D01*
X116155981Y-94916114D01*
X113392220Y-94613733D02*
X113996982Y-94613733D01*
X113271267Y-94250876D02*
X113694601Y-95520876D01*
X114117934Y-94250876D01*
X110522624Y-94414162D02*
X110667767Y-94365781D01*
X110909671Y-94365781D01*
X111006433Y-94414162D01*
X111054814Y-94462543D01*
X111103195Y-94559305D01*
X111103195Y-94656067D01*
X111054814Y-94752829D01*
X111006433Y-94801210D01*
X110909671Y-94849590D01*
X110716148Y-94897971D01*
X110619386Y-94946352D01*
X110571005Y-94994733D01*
X110522624Y-95091495D01*
X110522624Y-95188257D01*
X110571005Y-95285019D01*
X110619386Y-95333400D01*
X110716148Y-95381781D01*
X110958052Y-95381781D01*
X111103195Y-95333400D01*
X111441862Y-95043114D02*
X111635386Y-94365781D01*
X111828909Y-94849590D01*
X112022433Y-94365781D01*
X112215957Y-95043114D01*
X108088457Y-95333400D02*
X107991695Y-95381781D01*
X107846552Y-95381781D01*
X107701410Y-95333400D01*
X107604648Y-95236638D01*
X107556267Y-95139876D01*
X107507886Y-94946352D01*
X107507886Y-94801210D01*
X107556267Y-94607686D01*
X107604648Y-94510924D01*
X107701410Y-94414162D01*
X107846552Y-94365781D01*
X107943314Y-94365781D01*
X108088457Y-94414162D01*
X108136838Y-94462543D01*
X108136838Y-94801210D01*
X107943314Y-94801210D01*
X108572267Y-95043114D02*
X108572267Y-94365781D01*
X108572267Y-94946352D02*
X108620648Y-94994733D01*
X108717410Y-95043114D01*
X108862552Y-95043114D01*
X108959314Y-94994733D01*
X109007695Y-94897971D01*
X109007695Y-94365781D01*
X109926933Y-94365781D02*
X109926933Y-95381781D01*
X109926933Y-94414162D02*
X109830171Y-94365781D01*
X109636648Y-94365781D01*
X109539886Y-94414162D01*
X109491505Y-94462543D01*
X109443124Y-94559305D01*
X109443124Y-94849590D01*
X109491505Y-94946352D01*
X109539886Y-94994733D01*
X109636648Y-95043114D01*
X109830171Y-95043114D01*
X109926933Y-94994733D01*
X120238123Y-110271019D02*
X119899456Y-111287019D01*
X119560790Y-110271019D01*
X118786695Y-111238638D02*
X118883457Y-111287019D01*
X119076980Y-111287019D01*
X119173742Y-111238638D01*
X119222123Y-111190257D01*
X119270504Y-111093495D01*
X119270504Y-110803210D01*
X119222123Y-110706448D01*
X119173742Y-110658067D01*
X119076980Y-110609686D01*
X118883457Y-110609686D01*
X118786695Y-110658067D01*
X117915838Y-111238638D02*
X118012600Y-111287019D01*
X118206123Y-111287019D01*
X118302885Y-111238638D01*
X118351266Y-111190257D01*
X118399647Y-111093495D01*
X118399647Y-110803210D01*
X118351266Y-110706448D01*
X118302885Y-110658067D01*
X118206123Y-110609686D01*
X118012600Y-110609686D01*
X117915838Y-110658067D01*
X116270886Y-110736686D02*
X116089457Y-110797162D01*
X116028981Y-110857638D01*
X115968505Y-110978590D01*
X115968505Y-111160019D01*
X116028981Y-111280971D01*
X116089457Y-111341448D01*
X116210410Y-111401924D01*
X116694219Y-111401924D01*
X116694219Y-110131924D01*
X116270886Y-110131924D01*
X116149933Y-110192400D01*
X116089457Y-110252876D01*
X116028981Y-110373829D01*
X116028981Y-110494781D01*
X116089457Y-110615733D01*
X116149933Y-110676210D01*
X116270886Y-110736686D01*
X116694219Y-110736686D01*
X113425481Y-110192400D02*
X113546433Y-110131924D01*
X113727862Y-110131924D01*
X113909290Y-110192400D01*
X114030243Y-110313352D01*
X114090719Y-110434305D01*
X114151195Y-110676210D01*
X114151195Y-110857638D01*
X114090719Y-111099543D01*
X114030243Y-111220495D01*
X113909290Y-111341448D01*
X113727862Y-111401924D01*
X113606910Y-111401924D01*
X113425481Y-111341448D01*
X113365005Y-111280971D01*
X113365005Y-110857638D01*
X113606910Y-110857638D01*
X111015505Y-111401924D02*
X111438838Y-110797162D01*
X111741219Y-111401924D02*
X111741219Y-110131924D01*
X111257410Y-110131924D01*
X111136457Y-110192400D01*
X111075981Y-110252876D01*
X111015505Y-110373829D01*
X111015505Y-110555257D01*
X111075981Y-110676210D01*
X111136457Y-110736686D01*
X111257410Y-110797162D01*
X111741219Y-110797162D01*
X109458243Y-110319400D02*
X109555005Y-110271019D01*
X109700148Y-110271019D01*
X109845290Y-110319400D01*
X109942052Y-110416162D01*
X109990433Y-110512924D01*
X110038814Y-110706448D01*
X110038814Y-110851590D01*
X109990433Y-111045114D01*
X109942052Y-111141876D01*
X109845290Y-111238638D01*
X109700148Y-111287019D01*
X109603386Y-111287019D01*
X109458243Y-111238638D01*
X109409862Y-111190257D01*
X109409862Y-110851590D01*
X109603386Y-110851590D01*
X108974433Y-110609686D02*
X108974433Y-111287019D01*
X108974433Y-110706448D02*
X108926052Y-110658067D01*
X108829290Y-110609686D01*
X108684148Y-110609686D01*
X108587386Y-110658067D01*
X108539005Y-110754829D01*
X108539005Y-111287019D01*
X107619767Y-111287019D02*
X107619767Y-110271019D01*
X107619767Y-111238638D02*
X107716529Y-111287019D01*
X107910052Y-111287019D01*
X108006814Y-111238638D01*
X108055195Y-111190257D01*
X108103576Y-111093495D01*
X108103576Y-110803210D01*
X108055195Y-110706448D01*
X108006814Y-110658067D01*
X107910052Y-110609686D01*
X107716529Y-110609686D01*
X107619767Y-110658067D01*
D12*
X115880000Y-103715400D02*
X116337200Y-103715400D01*
X115854600Y-103309000D02*
X115270400Y-103715400D01*
X115854600Y-104121800D02*
X115854600Y-103309000D01*
X115245000Y-103715400D02*
X115854600Y-104121800D01*
X114838600Y-103715400D02*
X115219600Y-103715400D01*
X115245000Y-104248800D02*
X115245000Y-103182000D01*
D13*
X113350600Y-104715400D02*
X113350600Y-102715400D01*
X113350600Y-102715400D02*
X117250600Y-102715400D01*
X113350600Y-104715400D02*
X117250600Y-104715400D01*
X107411600Y-93996400D02*
X107411600Y-91336400D01*
X117631600Y-93996400D02*
X107411600Y-93996400D01*
X117631600Y-91336400D02*
X107411600Y-91336400D01*
X117631600Y-93996400D02*
X117631600Y-91336400D01*
X118901600Y-93996400D02*
X120231600Y-93996400D01*
X120231600Y-93996400D02*
X120231600Y-92666400D01*
D12*
X124635600Y-106355400D02*
X124635600Y-105455400D01*
X130185600Y-106355400D02*
X130185600Y-105455400D01*
X130185600Y-99805400D02*
X130185600Y-100705400D01*
X124635600Y-99805400D02*
X124635600Y-100705400D01*
X124635600Y-106355400D02*
X130185600Y-106355400D01*
X124635600Y-99805400D02*
X130185600Y-99805400D01*
X124635600Y-105455400D02*
X123360600Y-105455400D01*
D13*
X128291600Y-95669400D02*
X127291600Y-95669400D01*
X127291600Y-97029400D02*
X128291600Y-97029400D01*
X128291600Y-97320400D02*
X127291600Y-97320400D01*
X127291600Y-98680400D02*
X128291600Y-98680400D01*
X128141600Y-91939400D02*
X127441600Y-91939400D01*
X127441600Y-93139400D02*
X128141600Y-93139400D01*
D12*
X126750200Y-94444400D02*
X126293000Y-94444400D01*
X126775600Y-94850800D02*
X127359800Y-94444400D01*
X126775600Y-94038000D02*
X126775600Y-94850800D01*
X127385200Y-94444400D02*
X126775600Y-94038000D01*
X127791600Y-94444400D02*
X127410600Y-94444400D01*
X127385200Y-93911000D02*
X127385200Y-94977800D01*
D13*
X129279600Y-93444400D02*
X129279600Y-95444400D01*
X129279600Y-95444400D02*
X125379600Y-95444400D01*
X129279600Y-93444400D02*
X125379600Y-93444400D01*
D12*
X126750200Y-111208400D02*
X126293000Y-111208400D01*
X126775600Y-111614800D02*
X127359800Y-111208400D01*
X126775600Y-110802000D02*
X126775600Y-111614800D01*
X127385200Y-111208400D02*
X126775600Y-110802000D01*
X127791600Y-111208400D02*
X127410600Y-111208400D01*
X127385200Y-110675000D02*
X127385200Y-111741800D01*
D13*
X129279600Y-110208400D02*
X129279600Y-112208400D01*
X129279600Y-112208400D02*
X125379600Y-112208400D01*
X129279600Y-110208400D02*
X125379600Y-110208400D01*
X128291600Y-108623400D02*
X127291600Y-108623400D01*
X127291600Y-109983400D02*
X128291600Y-109983400D01*
X128141600Y-112513400D02*
X127441600Y-112513400D01*
X127441600Y-113713400D02*
X128141600Y-113713400D01*
X115950600Y-106220400D02*
X116650600Y-106220400D01*
X116650600Y-105020400D02*
X115950600Y-105020400D01*
X128291600Y-106972400D02*
X127291600Y-106972400D01*
X127291600Y-108332400D02*
X128291600Y-108332400D01*
X116650600Y-101130400D02*
X115650600Y-101130400D01*
X115650600Y-102490400D02*
X116650600Y-102490400D01*
X116650600Y-99479400D02*
X115650600Y-99479400D01*
X115650600Y-100839400D02*
X116650600Y-100839400D01*
X109384600Y-101220400D02*
X110384600Y-101220400D01*
X110384600Y-99860400D02*
X109384600Y-99860400D01*
X109384600Y-105284400D02*
X110384600Y-105284400D01*
X110384600Y-103924400D02*
X109384600Y-103924400D01*
X107225600Y-109729400D02*
X108225600Y-109729400D01*
X108225600Y-108369400D02*
X107225600Y-108369400D01*
X107417570Y-114307492D02*
X107417570Y-111647492D01*
X117637570Y-114307492D02*
X107417570Y-114307492D01*
X117637570Y-111647492D02*
X107417570Y-111647492D01*
X117637570Y-114307492D02*
X117637570Y-111647492D01*
X118907570Y-114307492D02*
X120237570Y-114307492D01*
X120237570Y-114307492D02*
X120237570Y-112977492D01*
D12*
X119703195Y-104231281D02*
X119703195Y-103231281D01*
X119465100Y-103231281D01*
X119322242Y-103278900D01*
X119227004Y-103374138D01*
X119179385Y-103469376D01*
X119131766Y-103659852D01*
X119131766Y-103802710D01*
X119179385Y-103993186D01*
X119227004Y-104088424D01*
X119322242Y-104183662D01*
X119465100Y-104231281D01*
X119703195Y-104231281D01*
X118798433Y-103231281D02*
X118179385Y-103231281D01*
X118512719Y-103612233D01*
X118369861Y-103612233D01*
X118274623Y-103659852D01*
X118227004Y-103707471D01*
X118179385Y-103802710D01*
X118179385Y-104040805D01*
X118227004Y-104136043D01*
X118274623Y-104183662D01*
X118369861Y-104231281D01*
X118655576Y-104231281D01*
X118750814Y-104183662D01*
X118798433Y-104136043D01*
X106528963Y-92254689D02*
X106528963Y-92968975D01*
X106576583Y-93111832D01*
X106671821Y-93207070D01*
X106814678Y-93254689D01*
X106909916Y-93254689D01*
X106100392Y-92349927D02*
X106052773Y-92302308D01*
X105957535Y-92254689D01*
X105719439Y-92254689D01*
X105624201Y-92302308D01*
X105576582Y-92349927D01*
X105528963Y-92445165D01*
X105528963Y-92540403D01*
X105576582Y-92683260D01*
X106148011Y-93254689D01*
X105528963Y-93254689D01*
X132363505Y-99357781D02*
X132363505Y-100167305D01*
X132315886Y-100262543D01*
X132268267Y-100310162D01*
X132173029Y-100357781D01*
X131982552Y-100357781D01*
X131887314Y-100310162D01*
X131839695Y-100262543D01*
X131792076Y-100167305D01*
X131792076Y-99357781D01*
X130792076Y-100357781D02*
X131363505Y-100357781D01*
X131077791Y-100357781D02*
X131077791Y-99357781D01*
X131173029Y-99500638D01*
X131268267Y-99595876D01*
X131363505Y-99643495D01*
X130836266Y-96801781D02*
X131169600Y-96325590D01*
X131407695Y-96801781D02*
X131407695Y-95801781D01*
X131026742Y-95801781D01*
X130931504Y-95849400D01*
X130883885Y-95897019D01*
X130836266Y-95992257D01*
X130836266Y-96135114D01*
X130883885Y-96230352D01*
X130931504Y-96277971D01*
X131026742Y-96325590D01*
X131407695Y-96325590D01*
X129883885Y-96801781D02*
X130455314Y-96801781D01*
X130169600Y-96801781D02*
X130169600Y-95801781D01*
X130264838Y-95944638D01*
X130360076Y-96039876D01*
X130455314Y-96087495D01*
X130963266Y-98452781D02*
X131296600Y-97976590D01*
X131534695Y-98452781D02*
X131534695Y-97452781D01*
X131153742Y-97452781D01*
X131058504Y-97500400D01*
X131010885Y-97548019D01*
X130963266Y-97643257D01*
X130963266Y-97786114D01*
X131010885Y-97881352D01*
X131058504Y-97928971D01*
X131153742Y-97976590D01*
X131534695Y-97976590D01*
X130106123Y-97786114D02*
X130106123Y-98452781D01*
X130344219Y-97405162D02*
X130582314Y-98119448D01*
X129963266Y-98119448D01*
X130686266Y-92769543D02*
X130733885Y-92817162D01*
X130876742Y-92864781D01*
X130971980Y-92864781D01*
X131114838Y-92817162D01*
X131210076Y-92721924D01*
X131257695Y-92626686D01*
X131305314Y-92436210D01*
X131305314Y-92293352D01*
X131257695Y-92102876D01*
X131210076Y-92007638D01*
X131114838Y-91912400D01*
X130971980Y-91864781D01*
X130876742Y-91864781D01*
X130733885Y-91912400D01*
X130686266Y-91960019D01*
X129733885Y-92864781D02*
X130305314Y-92864781D01*
X130019600Y-92864781D02*
X130019600Y-91864781D01*
X130114838Y-92007638D01*
X130210076Y-92102876D01*
X130305314Y-92150495D01*
X131195695Y-94769781D02*
X131195695Y-93769781D01*
X130957600Y-93769781D01*
X130814742Y-93817400D01*
X130719504Y-93912638D01*
X130671885Y-94007876D01*
X130624266Y-94198352D01*
X130624266Y-94341210D01*
X130671885Y-94531686D01*
X130719504Y-94626924D01*
X130814742Y-94722162D01*
X130957600Y-94769781D01*
X131195695Y-94769781D01*
X129671885Y-94769781D02*
X130243314Y-94769781D01*
X129957600Y-94769781D02*
X129957600Y-93769781D01*
X130052838Y-93912638D01*
X130148076Y-94007876D01*
X130243314Y-94055495D01*
X131322695Y-111533781D02*
X131322695Y-110533781D01*
X131084600Y-110533781D01*
X130941742Y-110581400D01*
X130846504Y-110676638D01*
X130798885Y-110771876D01*
X130751266Y-110962352D01*
X130751266Y-111105210D01*
X130798885Y-111295686D01*
X130846504Y-111390924D01*
X130941742Y-111486162D01*
X131084600Y-111533781D01*
X131322695Y-111533781D01*
X130370314Y-110629019D02*
X130322695Y-110581400D01*
X130227457Y-110533781D01*
X129989361Y-110533781D01*
X129894123Y-110581400D01*
X129846504Y-110629019D01*
X129798885Y-110724257D01*
X129798885Y-110819495D01*
X129846504Y-110962352D01*
X130417933Y-111533781D01*
X129798885Y-111533781D01*
X130963266Y-109755781D02*
X131296600Y-109279590D01*
X131534695Y-109755781D02*
X131534695Y-108755781D01*
X131153742Y-108755781D01*
X131058504Y-108803400D01*
X131010885Y-108851019D01*
X130963266Y-108946257D01*
X130963266Y-109089114D01*
X131010885Y-109184352D01*
X131058504Y-109231971D01*
X131153742Y-109279590D01*
X131534695Y-109279590D01*
X130582314Y-108851019D02*
X130534695Y-108803400D01*
X130439457Y-108755781D01*
X130201361Y-108755781D01*
X130106123Y-108803400D01*
X130058504Y-108851019D01*
X130010885Y-108946257D01*
X130010885Y-109041495D01*
X130058504Y-109184352D01*
X130629933Y-109755781D01*
X130010885Y-109755781D01*
X130940266Y-113343543D02*
X130987885Y-113391162D01*
X131130742Y-113438781D01*
X131225980Y-113438781D01*
X131368838Y-113391162D01*
X131464076Y-113295924D01*
X131511695Y-113200686D01*
X131559314Y-113010210D01*
X131559314Y-112867352D01*
X131511695Y-112676876D01*
X131464076Y-112581638D01*
X131368838Y-112486400D01*
X131225980Y-112438781D01*
X131130742Y-112438781D01*
X130987885Y-112486400D01*
X130940266Y-112534019D01*
X130559314Y-112534019D02*
X130511695Y-112486400D01*
X130416457Y-112438781D01*
X130178361Y-112438781D01*
X130083123Y-112486400D01*
X130035504Y-112534019D01*
X129987885Y-112629257D01*
X129987885Y-112724495D01*
X130035504Y-112867352D01*
X130606933Y-113438781D01*
X129987885Y-113438781D01*
X119258766Y-105977543D02*
X119306385Y-106025162D01*
X119449242Y-106072781D01*
X119544480Y-106072781D01*
X119687338Y-106025162D01*
X119782576Y-105929924D01*
X119830195Y-105834686D01*
X119877814Y-105644210D01*
X119877814Y-105501352D01*
X119830195Y-105310876D01*
X119782576Y-105215638D01*
X119687338Y-105120400D01*
X119544480Y-105072781D01*
X119449242Y-105072781D01*
X119306385Y-105120400D01*
X119258766Y-105168019D01*
X118925433Y-105072781D02*
X118306385Y-105072781D01*
X118639719Y-105453733D01*
X118496861Y-105453733D01*
X118401623Y-105501352D01*
X118354004Y-105548971D01*
X118306385Y-105644210D01*
X118306385Y-105882305D01*
X118354004Y-105977543D01*
X118401623Y-106025162D01*
X118496861Y-106072781D01*
X118782576Y-106072781D01*
X118877814Y-106025162D01*
X118925433Y-105977543D01*
X130963266Y-108104781D02*
X131296600Y-107628590D01*
X131534695Y-108104781D02*
X131534695Y-107104781D01*
X131153742Y-107104781D01*
X131058504Y-107152400D01*
X131010885Y-107200019D01*
X130963266Y-107295257D01*
X130963266Y-107438114D01*
X131010885Y-107533352D01*
X131058504Y-107580971D01*
X131153742Y-107628590D01*
X131534695Y-107628590D01*
X130058504Y-107104781D02*
X130534695Y-107104781D01*
X130582314Y-107580971D01*
X130534695Y-107533352D01*
X130439457Y-107485733D01*
X130201361Y-107485733D01*
X130106123Y-107533352D01*
X130058504Y-107580971D01*
X130010885Y-107676210D01*
X130010885Y-107914305D01*
X130058504Y-108009543D01*
X130106123Y-108057162D01*
X130201361Y-108104781D01*
X130439457Y-108104781D01*
X130534695Y-108057162D01*
X130582314Y-108009543D01*
X119195266Y-102262781D02*
X119528600Y-101786590D01*
X119766695Y-102262781D02*
X119766695Y-101262781D01*
X119385742Y-101262781D01*
X119290504Y-101310400D01*
X119242885Y-101358019D01*
X119195266Y-101453257D01*
X119195266Y-101596114D01*
X119242885Y-101691352D01*
X119290504Y-101738971D01*
X119385742Y-101786590D01*
X119766695Y-101786590D01*
X118861933Y-101262781D02*
X118242885Y-101262781D01*
X118576219Y-101643733D01*
X118433361Y-101643733D01*
X118338123Y-101691352D01*
X118290504Y-101738971D01*
X118242885Y-101834210D01*
X118242885Y-102072305D01*
X118290504Y-102167543D01*
X118338123Y-102215162D01*
X118433361Y-102262781D01*
X118719076Y-102262781D01*
X118814314Y-102215162D01*
X118861933Y-102167543D01*
X119195266Y-100611781D02*
X119528600Y-100135590D01*
X119766695Y-100611781D02*
X119766695Y-99611781D01*
X119385742Y-99611781D01*
X119290504Y-99659400D01*
X119242885Y-99707019D01*
X119195266Y-99802257D01*
X119195266Y-99945114D01*
X119242885Y-100040352D01*
X119290504Y-100087971D01*
X119385742Y-100135590D01*
X119766695Y-100135590D01*
X118338123Y-99611781D02*
X118528600Y-99611781D01*
X118623838Y-99659400D01*
X118671457Y-99707019D01*
X118766695Y-99849876D01*
X118814314Y-100040352D01*
X118814314Y-100421305D01*
X118766695Y-100516543D01*
X118719076Y-100564162D01*
X118623838Y-100611781D01*
X118433361Y-100611781D01*
X118338123Y-100564162D01*
X118290504Y-100516543D01*
X118242885Y-100421305D01*
X118242885Y-100183210D01*
X118290504Y-100087971D01*
X118338123Y-100040352D01*
X118433361Y-99992733D01*
X118623838Y-99992733D01*
X118719076Y-100040352D01*
X118766695Y-100087971D01*
X118814314Y-100183210D01*
X110094266Y-99595781D02*
X110427600Y-99119590D01*
X110665695Y-99595781D02*
X110665695Y-98595781D01*
X110284742Y-98595781D01*
X110189504Y-98643400D01*
X110141885Y-98691019D01*
X110094266Y-98786257D01*
X110094266Y-98929114D01*
X110141885Y-99024352D01*
X110189504Y-99071971D01*
X110284742Y-99119590D01*
X110665695Y-99119590D01*
X109760933Y-98595781D02*
X109094266Y-98595781D01*
X109522838Y-99595781D01*
X110051266Y-103659781D02*
X110384600Y-103183590D01*
X110622695Y-103659781D02*
X110622695Y-102659781D01*
X110241742Y-102659781D01*
X110146504Y-102707400D01*
X110098885Y-102755019D01*
X110051266Y-102850257D01*
X110051266Y-102993114D01*
X110098885Y-103088352D01*
X110146504Y-103135971D01*
X110241742Y-103183590D01*
X110622695Y-103183590D01*
X109479838Y-103088352D02*
X109575076Y-103040733D01*
X109622695Y-102993114D01*
X109670314Y-102897876D01*
X109670314Y-102850257D01*
X109622695Y-102755019D01*
X109575076Y-102707400D01*
X109479838Y-102659781D01*
X109289361Y-102659781D01*
X109194123Y-102707400D01*
X109146504Y-102755019D01*
X109098885Y-102850257D01*
X109098885Y-102897876D01*
X109146504Y-102993114D01*
X109194123Y-103040733D01*
X109289361Y-103088352D01*
X109479838Y-103088352D01*
X109575076Y-103135971D01*
X109622695Y-103183590D01*
X109670314Y-103278829D01*
X109670314Y-103469305D01*
X109622695Y-103564543D01*
X109575076Y-103612162D01*
X109479838Y-103659781D01*
X109289361Y-103659781D01*
X109194123Y-103612162D01*
X109146504Y-103564543D01*
X109098885Y-103469305D01*
X109098885Y-103278829D01*
X109146504Y-103183590D01*
X109194123Y-103135971D01*
X109289361Y-103088352D01*
X108908266Y-108104781D02*
X109241600Y-107628590D01*
X109479695Y-108104781D02*
X109479695Y-107104781D01*
X109098742Y-107104781D01*
X109003504Y-107152400D01*
X108955885Y-107200019D01*
X108908266Y-107295257D01*
X108908266Y-107438114D01*
X108955885Y-107533352D01*
X109003504Y-107580971D01*
X109098742Y-107628590D01*
X109479695Y-107628590D01*
X108432076Y-108104781D02*
X108241600Y-108104781D01*
X108146361Y-108057162D01*
X108098742Y-108009543D01*
X108003504Y-107866686D01*
X107955885Y-107676210D01*
X107955885Y-107295257D01*
X108003504Y-107200019D01*
X108051123Y-107152400D01*
X108146361Y-107104781D01*
X108336838Y-107104781D01*
X108432076Y-107152400D01*
X108479695Y-107200019D01*
X108527314Y-107295257D01*
X108527314Y-107533352D01*
X108479695Y-107628590D01*
X108432076Y-107676210D01*
X108336838Y-107723829D01*
X108146361Y-107723829D01*
X108051123Y-107676210D01*
X108003504Y-107628590D01*
X107955885Y-107533352D01*
X106540903Y-112302873D02*
X106540903Y-113017159D01*
X106588523Y-113160016D01*
X106683761Y-113255254D01*
X106826618Y-113302873D01*
X106921856Y-113302873D01*
X105540903Y-113302873D02*
X106112332Y-113302873D01*
X105826618Y-113302873D02*
X105826618Y-112302873D01*
X105921856Y-112445730D01*
X106017094Y-112540968D01*
X106112332Y-112588587D01*
M02*
