G04 #@! TF.FileFunction,Soldermask,Bot*
%FSLAX46Y46*%
G04 Gerber Fmt 4.6, Leading zero omitted, Abs format (unit mm)*
G04 Created by KiCad (PCBNEW 4.0.6) date 11/25/17 14:25:30*
%MOMM*%
%LPD*%
G01*
G04 APERTURE LIST*
%ADD10C,0.100000*%
%ADD11R,1.300000X1.600000*%
%ADD12C,2.000000*%
%ADD13C,2.100000*%
%ADD14C,4.000000*%
%ADD15R,2.100000X2.100000*%
%ADD16O,2.100000X2.100000*%
%ADD17R,1.600000X0.800000*%
%ADD18R,1.600000X1.300000*%
%ADD19R,1.600000X1.150000*%
G04 APERTURE END LIST*
D10*
D11*
X113950600Y-103715400D03*
X117250600Y-103715400D03*
D12*
X106694600Y-100762900D03*
X106694600Y-104762900D03*
D13*
X121194600Y-102762900D03*
D14*
X113694600Y-108362900D03*
D13*
X121194600Y-105262900D03*
X121194600Y-100262900D03*
D12*
X106694600Y-102762900D03*
X106694600Y-98762900D03*
X106694600Y-106762900D03*
D14*
X113594600Y-97162900D03*
D15*
X118901600Y-92666400D03*
D16*
X116361600Y-92666400D03*
X113821600Y-92666400D03*
X111281600Y-92666400D03*
X108741600Y-92666400D03*
D17*
X123960600Y-105030400D03*
X123960600Y-104380400D03*
X123960600Y-103730400D03*
X123960600Y-103080400D03*
X123960600Y-102430400D03*
X123960600Y-101780400D03*
X123960600Y-101130400D03*
X130860600Y-101130400D03*
X130860600Y-101780400D03*
X130860600Y-102430400D03*
X130860600Y-103080400D03*
X130860600Y-103730400D03*
X130860600Y-104380400D03*
X130860600Y-105030400D03*
D18*
X126691600Y-96349400D03*
X128891600Y-96349400D03*
X126691600Y-98000400D03*
X128891600Y-98000400D03*
D19*
X128741600Y-92539400D03*
X126841600Y-92539400D03*
D11*
X128679600Y-94444400D03*
X125379600Y-94444400D03*
X128679600Y-111208400D03*
X125379600Y-111208400D03*
D18*
X126691600Y-109303400D03*
X128891600Y-109303400D03*
D19*
X128741600Y-113113400D03*
X126841600Y-113113400D03*
X115350600Y-105620400D03*
X117250600Y-105620400D03*
D18*
X126691600Y-107652400D03*
X128891600Y-107652400D03*
X115050600Y-101810400D03*
X117250600Y-101810400D03*
X115050600Y-100159400D03*
X117250600Y-100159400D03*
X110984600Y-100540400D03*
X108784600Y-100540400D03*
X110984600Y-104604400D03*
X108784600Y-104604400D03*
X108825600Y-109049400D03*
X106625600Y-109049400D03*
D15*
X118907570Y-112977492D03*
D16*
X116367570Y-112977492D03*
X113827570Y-112977492D03*
X111287570Y-112977492D03*
X108747570Y-112977492D03*
M02*
