M48
;DRILL file {KiCad 4.0.6} date 11/25/17 14:25:32
;FORMAT={-:-/ absolute / inch / decimal}
FMAT,2
INCH,TZ
T1C0.016
T2C0.039
T3C0.043
T4C0.083
%
G90
G05
M72
T1
X4.3333Y-4.2933
X4.3579Y-4.1826
X4.3783Y-4.0513
X4.4755Y-4.0095
X4.4936Y-4.1518
X4.8312Y-4.0083
X4.8799Y-3.8596
X4.9437Y-3.8608
X4.9437Y-4.2283
X5.0037Y-4.1108
X5.0742Y-3.8972
X5.0742Y-4.1942
X5.0877Y-4.1043
X5.1012Y-3.9808
X5.1162Y-4.3033
X5.1187Y-3.7933
X5.1537Y-4.1658
X5.1912Y-3.8608
X5.1912Y-4.2308
T2
X4.2006Y-3.8883
X4.2006Y-3.967
X4.2006Y-4.0458
X4.2006Y-4.1245
X4.2006Y-4.2033
X4.2812Y-3.6483
X4.2814Y-4.4479
X4.3812Y-3.6483
X4.3814Y-4.4479
X4.4812Y-3.6483
X4.4814Y-4.4479
X4.5812Y-3.6483
X4.5814Y-4.4479
X4.6812Y-3.6483
X4.6814Y-4.4479
T3
X4.7714Y-3.9474
X4.7714Y-4.0458
X4.7714Y-4.1442
T4
X4.4722Y-3.8253
X4.4762Y-4.2663
T0
M30
