G04 #@! TF.FileFunction,Legend,Top*
%FSLAX46Y46*%
G04 Gerber Fmt 4.6, Leading zero omitted, Abs format (unit mm)*
G04 Created by KiCad (PCBNEW 4.0.6) date 01/06/18 19:18:27*
%MOMM*%
%LPD*%
G01*
G04 APERTURE LIST*
%ADD10C,0.100000*%
%ADD11C,0.203200*%
%ADD12C,0.120000*%
G04 APERTURE END LIST*
D10*
D11*
X157721905Y-130096381D02*
X157770286Y-130048000D01*
X157867048Y-129999619D01*
X158108952Y-129999619D01*
X158205714Y-130048000D01*
X158254095Y-130096381D01*
X158302476Y-130193143D01*
X158302476Y-130289905D01*
X158254095Y-130435048D01*
X157673524Y-131015619D01*
X158302476Y-131015619D01*
X158689524Y-130096381D02*
X158737905Y-130048000D01*
X158834667Y-129999619D01*
X159076571Y-129999619D01*
X159173333Y-130048000D01*
X159221714Y-130096381D01*
X159270095Y-130193143D01*
X159270095Y-130289905D01*
X159221714Y-130435048D01*
X158641143Y-131015619D01*
X159270095Y-131015619D01*
X157721905Y-127556381D02*
X157770286Y-127508000D01*
X157867048Y-127459619D01*
X158108952Y-127459619D01*
X158205714Y-127508000D01*
X158254095Y-127556381D01*
X158302476Y-127653143D01*
X158302476Y-127749905D01*
X158254095Y-127895048D01*
X157673524Y-128475619D01*
X158302476Y-128475619D01*
X158931429Y-127459619D02*
X159028190Y-127459619D01*
X159124952Y-127508000D01*
X159173333Y-127556381D01*
X159221714Y-127653143D01*
X159270095Y-127846667D01*
X159270095Y-128088571D01*
X159221714Y-128282095D01*
X159173333Y-128378857D01*
X159124952Y-128427238D01*
X159028190Y-128475619D01*
X158931429Y-128475619D01*
X158834667Y-128427238D01*
X158786286Y-128378857D01*
X158737905Y-128282095D01*
X158689524Y-128088571D01*
X158689524Y-127846667D01*
X158737905Y-127653143D01*
X158786286Y-127556381D01*
X158834667Y-127508000D01*
X158931429Y-127459619D01*
X158302476Y-125935619D02*
X157721905Y-125935619D01*
X158012191Y-125935619D02*
X158012191Y-124919619D01*
X157915429Y-125064762D01*
X157818667Y-125161524D01*
X157721905Y-125209905D01*
X158883048Y-125355048D02*
X158786286Y-125306667D01*
X158737905Y-125258286D01*
X158689524Y-125161524D01*
X158689524Y-125113143D01*
X158737905Y-125016381D01*
X158786286Y-124968000D01*
X158883048Y-124919619D01*
X159076571Y-124919619D01*
X159173333Y-124968000D01*
X159221714Y-125016381D01*
X159270095Y-125113143D01*
X159270095Y-125161524D01*
X159221714Y-125258286D01*
X159173333Y-125306667D01*
X159076571Y-125355048D01*
X158883048Y-125355048D01*
X158786286Y-125403429D01*
X158737905Y-125451810D01*
X158689524Y-125548571D01*
X158689524Y-125742095D01*
X158737905Y-125838857D01*
X158786286Y-125887238D01*
X158883048Y-125935619D01*
X159076571Y-125935619D01*
X159173333Y-125887238D01*
X159221714Y-125838857D01*
X159270095Y-125742095D01*
X159270095Y-125548571D01*
X159221714Y-125451810D01*
X159173333Y-125403429D01*
X159076571Y-125355048D01*
X158302476Y-123395619D02*
X157721905Y-123395619D01*
X158012191Y-123395619D02*
X158012191Y-122379619D01*
X157915429Y-122524762D01*
X157818667Y-122621524D01*
X157721905Y-122669905D01*
X159173333Y-122379619D02*
X158979810Y-122379619D01*
X158883048Y-122428000D01*
X158834667Y-122476381D01*
X158737905Y-122621524D01*
X158689524Y-122815048D01*
X158689524Y-123202095D01*
X158737905Y-123298857D01*
X158786286Y-123347238D01*
X158883048Y-123395619D01*
X159076571Y-123395619D01*
X159173333Y-123347238D01*
X159221714Y-123298857D01*
X159270095Y-123202095D01*
X159270095Y-122960190D01*
X159221714Y-122863429D01*
X159173333Y-122815048D01*
X159076571Y-122766667D01*
X158883048Y-122766667D01*
X158786286Y-122815048D01*
X158737905Y-122863429D01*
X158689524Y-122960190D01*
X158302476Y-120855619D02*
X157721905Y-120855619D01*
X158012191Y-120855619D02*
X158012191Y-119839619D01*
X157915429Y-119984762D01*
X157818667Y-120081524D01*
X157721905Y-120129905D01*
X159173333Y-120178286D02*
X159173333Y-120855619D01*
X158931429Y-119791238D02*
X158689524Y-120516952D01*
X159318476Y-120516952D01*
X158302476Y-118315619D02*
X157721905Y-118315619D01*
X158012191Y-118315619D02*
X158012191Y-117299619D01*
X157915429Y-117444762D01*
X157818667Y-117541524D01*
X157721905Y-117589905D01*
X158689524Y-117396381D02*
X158737905Y-117348000D01*
X158834667Y-117299619D01*
X159076571Y-117299619D01*
X159173333Y-117348000D01*
X159221714Y-117396381D01*
X159270095Y-117493143D01*
X159270095Y-117589905D01*
X159221714Y-117735048D01*
X158641143Y-118315619D01*
X159270095Y-118315619D01*
X158302476Y-115775619D02*
X157721905Y-115775619D01*
X158012191Y-115775619D02*
X158012191Y-114759619D01*
X157915429Y-114904762D01*
X157818667Y-115001524D01*
X157721905Y-115049905D01*
X158931429Y-114759619D02*
X159028190Y-114759619D01*
X159124952Y-114808000D01*
X159173333Y-114856381D01*
X159221714Y-114953143D01*
X159270095Y-115146667D01*
X159270095Y-115388571D01*
X159221714Y-115582095D01*
X159173333Y-115678857D01*
X159124952Y-115727238D01*
X159028190Y-115775619D01*
X158931429Y-115775619D01*
X158834667Y-115727238D01*
X158786286Y-115678857D01*
X158737905Y-115582095D01*
X158689524Y-115388571D01*
X158689524Y-115146667D01*
X158737905Y-114953143D01*
X158786286Y-114856381D01*
X158834667Y-114808000D01*
X158931429Y-114759619D01*
X158399239Y-112655048D02*
X158302477Y-112606667D01*
X158254096Y-112558286D01*
X158205715Y-112461524D01*
X158205715Y-112413143D01*
X158254096Y-112316381D01*
X158302477Y-112268000D01*
X158399239Y-112219619D01*
X158592762Y-112219619D01*
X158689524Y-112268000D01*
X158737905Y-112316381D01*
X158786286Y-112413143D01*
X158786286Y-112461524D01*
X158737905Y-112558286D01*
X158689524Y-112606667D01*
X158592762Y-112655048D01*
X158399239Y-112655048D01*
X158302477Y-112703429D01*
X158254096Y-112751810D01*
X158205715Y-112848571D01*
X158205715Y-113042095D01*
X158254096Y-113138857D01*
X158302477Y-113187238D01*
X158399239Y-113235619D01*
X158592762Y-113235619D01*
X158689524Y-113187238D01*
X158737905Y-113138857D01*
X158786286Y-113042095D01*
X158786286Y-112848571D01*
X158737905Y-112751810D01*
X158689524Y-112703429D01*
X158592762Y-112655048D01*
X157721905Y-135176381D02*
X157770286Y-135128000D01*
X157867048Y-135079619D01*
X158108952Y-135079619D01*
X158205714Y-135128000D01*
X158254095Y-135176381D01*
X158302476Y-135273143D01*
X158302476Y-135369905D01*
X158254095Y-135515048D01*
X157673524Y-136095619D01*
X158302476Y-136095619D01*
X159173333Y-135079619D02*
X158979810Y-135079619D01*
X158883048Y-135128000D01*
X158834667Y-135176381D01*
X158737905Y-135321524D01*
X158689524Y-135515048D01*
X158689524Y-135902095D01*
X158737905Y-135998857D01*
X158786286Y-136047238D01*
X158883048Y-136095619D01*
X159076571Y-136095619D01*
X159173333Y-136047238D01*
X159221714Y-135998857D01*
X159270095Y-135902095D01*
X159270095Y-135660190D01*
X159221714Y-135563429D01*
X159173333Y-135515048D01*
X159076571Y-135466667D01*
X158883048Y-135466667D01*
X158786286Y-135515048D01*
X158737905Y-135563429D01*
X158689524Y-135660190D01*
X157721905Y-132636381D02*
X157770286Y-132588000D01*
X157867048Y-132539619D01*
X158108952Y-132539619D01*
X158205714Y-132588000D01*
X158254095Y-132636381D01*
X158302476Y-132733143D01*
X158302476Y-132829905D01*
X158254095Y-132975048D01*
X157673524Y-133555619D01*
X158302476Y-133555619D01*
X159173333Y-132878286D02*
X159173333Y-133555619D01*
X158931429Y-132491238D02*
X158689524Y-133216952D01*
X159318476Y-133216952D01*
X158689524Y-109679619D02*
X158496001Y-109679619D01*
X158399239Y-109728000D01*
X158350858Y-109776381D01*
X158254096Y-109921524D01*
X158205715Y-110115048D01*
X158205715Y-110502095D01*
X158254096Y-110598857D01*
X158302477Y-110647238D01*
X158399239Y-110695619D01*
X158592762Y-110695619D01*
X158689524Y-110647238D01*
X158737905Y-110598857D01*
X158786286Y-110502095D01*
X158786286Y-110260190D01*
X158737905Y-110163429D01*
X158689524Y-110115048D01*
X158592762Y-110066667D01*
X158399239Y-110066667D01*
X158302477Y-110115048D01*
X158254096Y-110163429D01*
X158205715Y-110260190D01*
X158689524Y-107478286D02*
X158689524Y-108155619D01*
X158447620Y-107091238D02*
X158205715Y-107816952D01*
X158834667Y-107816952D01*
X158205715Y-104696381D02*
X158254096Y-104648000D01*
X158350858Y-104599619D01*
X158592762Y-104599619D01*
X158689524Y-104648000D01*
X158737905Y-104696381D01*
X158786286Y-104793143D01*
X158786286Y-104889905D01*
X158737905Y-105035048D01*
X158157334Y-105615619D01*
X158786286Y-105615619D01*
X150101905Y-135176381D02*
X150150286Y-135128000D01*
X150247048Y-135079619D01*
X150488952Y-135079619D01*
X150585714Y-135128000D01*
X150634095Y-135176381D01*
X150682476Y-135273143D01*
X150682476Y-135369905D01*
X150634095Y-135515048D01*
X150053524Y-136095619D01*
X150682476Y-136095619D01*
X151601714Y-135079619D02*
X151117905Y-135079619D01*
X151069524Y-135563429D01*
X151117905Y-135515048D01*
X151214667Y-135466667D01*
X151456571Y-135466667D01*
X151553333Y-135515048D01*
X151601714Y-135563429D01*
X151650095Y-135660190D01*
X151650095Y-135902095D01*
X151601714Y-135998857D01*
X151553333Y-136047238D01*
X151456571Y-136095619D01*
X151214667Y-136095619D01*
X151117905Y-136047238D01*
X151069524Y-135998857D01*
X150101905Y-132636381D02*
X150150286Y-132588000D01*
X150247048Y-132539619D01*
X150488952Y-132539619D01*
X150585714Y-132588000D01*
X150634095Y-132636381D01*
X150682476Y-132733143D01*
X150682476Y-132829905D01*
X150634095Y-132975048D01*
X150053524Y-133555619D01*
X150682476Y-133555619D01*
X151021143Y-132539619D02*
X151650095Y-132539619D01*
X151311429Y-132926667D01*
X151456571Y-132926667D01*
X151553333Y-132975048D01*
X151601714Y-133023429D01*
X151650095Y-133120190D01*
X151650095Y-133362095D01*
X151601714Y-133458857D01*
X151553333Y-133507238D01*
X151456571Y-133555619D01*
X151166286Y-133555619D01*
X151069524Y-133507238D01*
X151021143Y-133458857D01*
X150101905Y-130096381D02*
X150150286Y-130048000D01*
X150247048Y-129999619D01*
X150488952Y-129999619D01*
X150585714Y-130048000D01*
X150634095Y-130096381D01*
X150682476Y-130193143D01*
X150682476Y-130289905D01*
X150634095Y-130435048D01*
X150053524Y-131015619D01*
X150682476Y-131015619D01*
X151650095Y-131015619D02*
X151069524Y-131015619D01*
X151359810Y-131015619D02*
X151359810Y-129999619D01*
X151263048Y-130144762D01*
X151166286Y-130241524D01*
X151069524Y-130289905D01*
X150682476Y-128475619D02*
X150101905Y-128475619D01*
X150392191Y-128475619D02*
X150392191Y-127459619D01*
X150295429Y-127604762D01*
X150198667Y-127701524D01*
X150101905Y-127749905D01*
X151166286Y-128475619D02*
X151359810Y-128475619D01*
X151456571Y-128427238D01*
X151504952Y-128378857D01*
X151601714Y-128233714D01*
X151650095Y-128040190D01*
X151650095Y-127653143D01*
X151601714Y-127556381D01*
X151553333Y-127508000D01*
X151456571Y-127459619D01*
X151263048Y-127459619D01*
X151166286Y-127508000D01*
X151117905Y-127556381D01*
X151069524Y-127653143D01*
X151069524Y-127895048D01*
X151117905Y-127991810D01*
X151166286Y-128040190D01*
X151263048Y-128088571D01*
X151456571Y-128088571D01*
X151553333Y-128040190D01*
X151601714Y-127991810D01*
X151650095Y-127895048D01*
X150682476Y-125935619D02*
X150101905Y-125935619D01*
X150392191Y-125935619D02*
X150392191Y-124919619D01*
X150295429Y-125064762D01*
X150198667Y-125161524D01*
X150101905Y-125209905D01*
X151021143Y-124919619D02*
X151698476Y-124919619D01*
X151263048Y-125935619D01*
X150682476Y-123395619D02*
X150101905Y-123395619D01*
X150392191Y-123395619D02*
X150392191Y-122379619D01*
X150295429Y-122524762D01*
X150198667Y-122621524D01*
X150101905Y-122669905D01*
X151601714Y-122379619D02*
X151117905Y-122379619D01*
X151069524Y-122863429D01*
X151117905Y-122815048D01*
X151214667Y-122766667D01*
X151456571Y-122766667D01*
X151553333Y-122815048D01*
X151601714Y-122863429D01*
X151650095Y-122960190D01*
X151650095Y-123202095D01*
X151601714Y-123298857D01*
X151553333Y-123347238D01*
X151456571Y-123395619D01*
X151214667Y-123395619D01*
X151117905Y-123347238D01*
X151069524Y-123298857D01*
X150682476Y-120855619D02*
X150101905Y-120855619D01*
X150392191Y-120855619D02*
X150392191Y-119839619D01*
X150295429Y-119984762D01*
X150198667Y-120081524D01*
X150101905Y-120129905D01*
X151021143Y-119839619D02*
X151650095Y-119839619D01*
X151311429Y-120226667D01*
X151456571Y-120226667D01*
X151553333Y-120275048D01*
X151601714Y-120323429D01*
X151650095Y-120420190D01*
X151650095Y-120662095D01*
X151601714Y-120758857D01*
X151553333Y-120807238D01*
X151456571Y-120855619D01*
X151166286Y-120855619D01*
X151069524Y-120807238D01*
X151021143Y-120758857D01*
X150682476Y-118315619D02*
X150101905Y-118315619D01*
X150392191Y-118315619D02*
X150392191Y-117299619D01*
X150295429Y-117444762D01*
X150198667Y-117541524D01*
X150101905Y-117589905D01*
X151650095Y-118315619D02*
X151069524Y-118315619D01*
X151359810Y-118315619D02*
X151359810Y-117299619D01*
X151263048Y-117444762D01*
X151166286Y-117541524D01*
X151069524Y-117589905D01*
X150682477Y-115775619D02*
X150876001Y-115775619D01*
X150972762Y-115727238D01*
X151021143Y-115678857D01*
X151117905Y-115533714D01*
X151166286Y-115340190D01*
X151166286Y-114953143D01*
X151117905Y-114856381D01*
X151069524Y-114808000D01*
X150972762Y-114759619D01*
X150779239Y-114759619D01*
X150682477Y-114808000D01*
X150634096Y-114856381D01*
X150585715Y-114953143D01*
X150585715Y-115195048D01*
X150634096Y-115291810D01*
X150682477Y-115340190D01*
X150779239Y-115388571D01*
X150972762Y-115388571D01*
X151069524Y-115340190D01*
X151117905Y-115291810D01*
X151166286Y-115195048D01*
X150537334Y-112219619D02*
X151214667Y-112219619D01*
X150779239Y-113235619D01*
X151117905Y-109679619D02*
X150634096Y-109679619D01*
X150585715Y-110163429D01*
X150634096Y-110115048D01*
X150730858Y-110066667D01*
X150972762Y-110066667D01*
X151069524Y-110115048D01*
X151117905Y-110163429D01*
X151166286Y-110260190D01*
X151166286Y-110502095D01*
X151117905Y-110598857D01*
X151069524Y-110647238D01*
X150972762Y-110695619D01*
X150730858Y-110695619D01*
X150634096Y-110647238D01*
X150585715Y-110598857D01*
X150537334Y-107139619D02*
X151166286Y-107139619D01*
X150827620Y-107526667D01*
X150972762Y-107526667D01*
X151069524Y-107575048D01*
X151117905Y-107623429D01*
X151166286Y-107720190D01*
X151166286Y-107962095D01*
X151117905Y-108058857D01*
X151069524Y-108107238D01*
X150972762Y-108155619D01*
X150682477Y-108155619D01*
X150585715Y-108107238D01*
X150537334Y-108058857D01*
X151166286Y-105615619D02*
X150585715Y-105615619D01*
X150876001Y-105615619D02*
X150876001Y-104599619D01*
X150779239Y-104744762D01*
X150682477Y-104841524D01*
X150585715Y-104889905D01*
D12*
X147006000Y-136966000D02*
X149666000Y-136966000D01*
X147006000Y-106426000D02*
X147006000Y-136966000D01*
X149666000Y-106426000D02*
X149666000Y-136966000D01*
X147006000Y-106426000D02*
X149666000Y-106426000D01*
X147006000Y-105156000D02*
X147006000Y-103826000D01*
X147006000Y-103826000D02*
X148336000Y-103826000D01*
X159706000Y-136966000D02*
X162366000Y-136966000D01*
X159706000Y-106426000D02*
X159706000Y-136966000D01*
X162366000Y-106426000D02*
X162366000Y-136966000D01*
X159706000Y-106426000D02*
X162366000Y-106426000D01*
X159706000Y-105156000D02*
X159706000Y-103826000D01*
X159706000Y-103826000D02*
X161036000Y-103826000D01*
X152086000Y-136966000D02*
X157286000Y-136966000D01*
X152086000Y-106426000D02*
X152086000Y-136966000D01*
X157286000Y-103826000D02*
X157286000Y-136966000D01*
X152086000Y-106426000D02*
X154686000Y-106426000D01*
X154686000Y-106426000D02*
X154686000Y-103826000D01*
X154686000Y-103826000D02*
X157286000Y-103826000D01*
X152086000Y-105156000D02*
X152086000Y-103826000D01*
X152086000Y-103826000D02*
X153416000Y-103826000D01*
M02*
