G04 #@! TF.FileFunction,Soldermask,Top*
%FSLAX46Y46*%
G04 Gerber Fmt 4.6, Leading zero omitted, Abs format (unit mm)*
G04 Created by KiCad (PCBNEW 4.0.6) date 01/06/18 19:18:27*
%MOMM*%
%LPD*%
G01*
G04 APERTURE LIST*
%ADD10C,0.100000*%
%ADD11R,2.100000X2.100000*%
%ADD12O,2.100000X2.100000*%
G04 APERTURE END LIST*
D10*
D11*
X148336000Y-105156000D03*
D12*
X148336000Y-107696000D03*
X148336000Y-110236000D03*
X148336000Y-112776000D03*
X148336000Y-115316000D03*
X148336000Y-117856000D03*
X148336000Y-120396000D03*
X148336000Y-122936000D03*
X148336000Y-125476000D03*
X148336000Y-128016000D03*
X148336000Y-130556000D03*
X148336000Y-133096000D03*
X148336000Y-135636000D03*
D11*
X161036000Y-105156000D03*
D12*
X161036000Y-107696000D03*
X161036000Y-110236000D03*
X161036000Y-112776000D03*
X161036000Y-115316000D03*
X161036000Y-117856000D03*
X161036000Y-120396000D03*
X161036000Y-122936000D03*
X161036000Y-125476000D03*
X161036000Y-128016000D03*
X161036000Y-130556000D03*
X161036000Y-133096000D03*
X161036000Y-135636000D03*
D11*
X153416000Y-105156000D03*
D12*
X155956000Y-105156000D03*
X153416000Y-107696000D03*
X155956000Y-107696000D03*
X153416000Y-110236000D03*
X155956000Y-110236000D03*
X153416000Y-112776000D03*
X155956000Y-112776000D03*
X153416000Y-115316000D03*
X155956000Y-115316000D03*
X153416000Y-117856000D03*
X155956000Y-117856000D03*
X153416000Y-120396000D03*
X155956000Y-120396000D03*
X153416000Y-122936000D03*
X155956000Y-122936000D03*
X153416000Y-125476000D03*
X155956000Y-125476000D03*
X153416000Y-128016000D03*
X155956000Y-128016000D03*
X153416000Y-130556000D03*
X155956000Y-130556000D03*
X153416000Y-133096000D03*
X155956000Y-133096000D03*
X153416000Y-135636000D03*
X155956000Y-135636000D03*
M02*
