G04 #@! TF.FileFunction,Paste,Top*
%FSLAX46Y46*%
G04 Gerber Fmt 4.6, Leading zero omitted, Abs format (unit mm)*
G04 Created by KiCad (PCBNEW 4.0.7) date 02/22/18 18:04:52*
%MOMM*%
%LPD*%
G01*
G04 APERTURE LIST*
%ADD10C,0.100000*%
G04 APERTURE END LIST*
D10*
G36*
X148297476Y-96435800D02*
X148120699Y-96259023D01*
X148827806Y-95551916D01*
X149004583Y-95728693D01*
X148297476Y-96435800D01*
X148297476Y-96435800D01*
G37*
G36*
X148651029Y-96789354D02*
X148474252Y-96612577D01*
X149181359Y-95905470D01*
X149358136Y-96082247D01*
X148651029Y-96789354D01*
X148651029Y-96789354D01*
G37*
G36*
X149004583Y-97142907D02*
X148827806Y-96966130D01*
X149534913Y-96259023D01*
X149711690Y-96435800D01*
X149004583Y-97142907D01*
X149004583Y-97142907D01*
G37*
G36*
X149358136Y-97496460D02*
X149181359Y-97319683D01*
X149888466Y-96612576D01*
X150065243Y-96789353D01*
X149358136Y-97496460D01*
X149358136Y-97496460D01*
G37*
G36*
X149711689Y-97850014D02*
X149534912Y-97673237D01*
X150242019Y-96966130D01*
X150418796Y-97142907D01*
X149711689Y-97850014D01*
X149711689Y-97850014D01*
G37*
G36*
X150065243Y-98203567D02*
X149888466Y-98026790D01*
X150595573Y-97319683D01*
X150772350Y-97496460D01*
X150065243Y-98203567D01*
X150065243Y-98203567D01*
G37*
G36*
X150418796Y-98557121D02*
X150242019Y-98380344D01*
X150949126Y-97673237D01*
X151125903Y-97850014D01*
X150418796Y-98557121D01*
X150418796Y-98557121D01*
G37*
G36*
X150772350Y-98910674D02*
X150595573Y-98733897D01*
X151302680Y-98026790D01*
X151479457Y-98203567D01*
X150772350Y-98910674D01*
X150772350Y-98910674D01*
G37*
G36*
X151125903Y-99264227D02*
X150949126Y-99087450D01*
X151656233Y-98380343D01*
X151833010Y-98557120D01*
X151125903Y-99264227D01*
X151125903Y-99264227D01*
G37*
G36*
X151479456Y-99617781D02*
X151302679Y-99441004D01*
X152009786Y-98733897D01*
X152186563Y-98910674D01*
X151479456Y-99617781D01*
X151479456Y-99617781D01*
G37*
G36*
X151833010Y-99971334D02*
X151656233Y-99794557D01*
X152363340Y-99087450D01*
X152540117Y-99264227D01*
X151833010Y-99971334D01*
X151833010Y-99971334D01*
G37*
G36*
X152186563Y-100324888D02*
X152009786Y-100148111D01*
X152716893Y-99441004D01*
X152893670Y-99617781D01*
X152186563Y-100324888D01*
X152186563Y-100324888D01*
G37*
G36*
X152540117Y-100678441D02*
X152363340Y-100501664D01*
X153070447Y-99794557D01*
X153247224Y-99971334D01*
X152540117Y-100678441D01*
X152540117Y-100678441D01*
G37*
G36*
X152893670Y-101031994D02*
X152716893Y-100855217D01*
X153424000Y-100148110D01*
X153600777Y-100324887D01*
X152893670Y-101031994D01*
X152893670Y-101031994D01*
G37*
G36*
X153247223Y-101385548D02*
X153070446Y-101208771D01*
X153777553Y-100501664D01*
X153954330Y-100678441D01*
X153247223Y-101385548D01*
X153247223Y-101385548D01*
G37*
G36*
X153600777Y-101739101D02*
X153424000Y-101562324D01*
X154131107Y-100855217D01*
X154307884Y-101031994D01*
X153600777Y-101739101D01*
X153600777Y-101739101D01*
G37*
G36*
X157065600Y-101562324D02*
X156888823Y-101739101D01*
X156181716Y-101031994D01*
X156358493Y-100855217D01*
X157065600Y-101562324D01*
X157065600Y-101562324D01*
G37*
G36*
X157419154Y-101208771D02*
X157242377Y-101385548D01*
X156535270Y-100678441D01*
X156712047Y-100501664D01*
X157419154Y-101208771D01*
X157419154Y-101208771D01*
G37*
G36*
X157772707Y-100855217D02*
X157595930Y-101031994D01*
X156888823Y-100324887D01*
X157065600Y-100148110D01*
X157772707Y-100855217D01*
X157772707Y-100855217D01*
G37*
G36*
X158126260Y-100501664D02*
X157949483Y-100678441D01*
X157242376Y-99971334D01*
X157419153Y-99794557D01*
X158126260Y-100501664D01*
X158126260Y-100501664D01*
G37*
G36*
X158479814Y-100148111D02*
X158303037Y-100324888D01*
X157595930Y-99617781D01*
X157772707Y-99441004D01*
X158479814Y-100148111D01*
X158479814Y-100148111D01*
G37*
G36*
X158833367Y-99794557D02*
X158656590Y-99971334D01*
X157949483Y-99264227D01*
X158126260Y-99087450D01*
X158833367Y-99794557D01*
X158833367Y-99794557D01*
G37*
G36*
X159186921Y-99441004D02*
X159010144Y-99617781D01*
X158303037Y-98910674D01*
X158479814Y-98733897D01*
X159186921Y-99441004D01*
X159186921Y-99441004D01*
G37*
G36*
X159540474Y-99087450D02*
X159363697Y-99264227D01*
X158656590Y-98557120D01*
X158833367Y-98380343D01*
X159540474Y-99087450D01*
X159540474Y-99087450D01*
G37*
G36*
X159894027Y-98733897D02*
X159717250Y-98910674D01*
X159010143Y-98203567D01*
X159186920Y-98026790D01*
X159894027Y-98733897D01*
X159894027Y-98733897D01*
G37*
G36*
X160247581Y-98380344D02*
X160070804Y-98557121D01*
X159363697Y-97850014D01*
X159540474Y-97673237D01*
X160247581Y-98380344D01*
X160247581Y-98380344D01*
G37*
G36*
X160601134Y-98026790D02*
X160424357Y-98203567D01*
X159717250Y-97496460D01*
X159894027Y-97319683D01*
X160601134Y-98026790D01*
X160601134Y-98026790D01*
G37*
G36*
X160954688Y-97673237D02*
X160777911Y-97850014D01*
X160070804Y-97142907D01*
X160247581Y-96966130D01*
X160954688Y-97673237D01*
X160954688Y-97673237D01*
G37*
G36*
X161308241Y-97319683D02*
X161131464Y-97496460D01*
X160424357Y-96789353D01*
X160601134Y-96612576D01*
X161308241Y-97319683D01*
X161308241Y-97319683D01*
G37*
G36*
X161661794Y-96966130D02*
X161485017Y-97142907D01*
X160777910Y-96435800D01*
X160954687Y-96259023D01*
X161661794Y-96966130D01*
X161661794Y-96966130D01*
G37*
G36*
X162015348Y-96612577D02*
X161838571Y-96789354D01*
X161131464Y-96082247D01*
X161308241Y-95905470D01*
X162015348Y-96612577D01*
X162015348Y-96612577D01*
G37*
G36*
X162368901Y-96259023D02*
X162192124Y-96435800D01*
X161485017Y-95728693D01*
X161661794Y-95551916D01*
X162368901Y-96259023D01*
X162368901Y-96259023D01*
G37*
G36*
X161661794Y-93678084D02*
X161485017Y-93501307D01*
X162192124Y-92794200D01*
X162368901Y-92970977D01*
X161661794Y-93678084D01*
X161661794Y-93678084D01*
G37*
G36*
X161308241Y-93324530D02*
X161131464Y-93147753D01*
X161838571Y-92440646D01*
X162015348Y-92617423D01*
X161308241Y-93324530D01*
X161308241Y-93324530D01*
G37*
G36*
X160954687Y-92970977D02*
X160777910Y-92794200D01*
X161485017Y-92087093D01*
X161661794Y-92263870D01*
X160954687Y-92970977D01*
X160954687Y-92970977D01*
G37*
G36*
X160601134Y-92617424D02*
X160424357Y-92440647D01*
X161131464Y-91733540D01*
X161308241Y-91910317D01*
X160601134Y-92617424D01*
X160601134Y-92617424D01*
G37*
G36*
X160247581Y-92263870D02*
X160070804Y-92087093D01*
X160777911Y-91379986D01*
X160954688Y-91556763D01*
X160247581Y-92263870D01*
X160247581Y-92263870D01*
G37*
G36*
X159894027Y-91910317D02*
X159717250Y-91733540D01*
X160424357Y-91026433D01*
X160601134Y-91203210D01*
X159894027Y-91910317D01*
X159894027Y-91910317D01*
G37*
G36*
X159540474Y-91556763D02*
X159363697Y-91379986D01*
X160070804Y-90672879D01*
X160247581Y-90849656D01*
X159540474Y-91556763D01*
X159540474Y-91556763D01*
G37*
G36*
X159186920Y-91203210D02*
X159010143Y-91026433D01*
X159717250Y-90319326D01*
X159894027Y-90496103D01*
X159186920Y-91203210D01*
X159186920Y-91203210D01*
G37*
G36*
X158833367Y-90849657D02*
X158656590Y-90672880D01*
X159363697Y-89965773D01*
X159540474Y-90142550D01*
X158833367Y-90849657D01*
X158833367Y-90849657D01*
G37*
G36*
X158479814Y-90496103D02*
X158303037Y-90319326D01*
X159010144Y-89612219D01*
X159186921Y-89788996D01*
X158479814Y-90496103D01*
X158479814Y-90496103D01*
G37*
G36*
X158126260Y-90142550D02*
X157949483Y-89965773D01*
X158656590Y-89258666D01*
X158833367Y-89435443D01*
X158126260Y-90142550D01*
X158126260Y-90142550D01*
G37*
G36*
X157772707Y-89788996D02*
X157595930Y-89612219D01*
X158303037Y-88905112D01*
X158479814Y-89081889D01*
X157772707Y-89788996D01*
X157772707Y-89788996D01*
G37*
G36*
X157419153Y-89435443D02*
X157242376Y-89258666D01*
X157949483Y-88551559D01*
X158126260Y-88728336D01*
X157419153Y-89435443D01*
X157419153Y-89435443D01*
G37*
G36*
X157065600Y-89081890D02*
X156888823Y-88905113D01*
X157595930Y-88198006D01*
X157772707Y-88374783D01*
X157065600Y-89081890D01*
X157065600Y-89081890D01*
G37*
G36*
X156712047Y-88728336D02*
X156535270Y-88551559D01*
X157242377Y-87844452D01*
X157419154Y-88021229D01*
X156712047Y-88728336D01*
X156712047Y-88728336D01*
G37*
G36*
X156358493Y-88374783D02*
X156181716Y-88198006D01*
X156888823Y-87490899D01*
X157065600Y-87667676D01*
X156358493Y-88374783D01*
X156358493Y-88374783D01*
G37*
G36*
X154307884Y-88198006D02*
X154131107Y-88374783D01*
X153424000Y-87667676D01*
X153600777Y-87490899D01*
X154307884Y-88198006D01*
X154307884Y-88198006D01*
G37*
G36*
X153954330Y-88551559D02*
X153777553Y-88728336D01*
X153070446Y-88021229D01*
X153247223Y-87844452D01*
X153954330Y-88551559D01*
X153954330Y-88551559D01*
G37*
G36*
X153600777Y-88905113D02*
X153424000Y-89081890D01*
X152716893Y-88374783D01*
X152893670Y-88198006D01*
X153600777Y-88905113D01*
X153600777Y-88905113D01*
G37*
G36*
X153247224Y-89258666D02*
X153070447Y-89435443D01*
X152363340Y-88728336D01*
X152540117Y-88551559D01*
X153247224Y-89258666D01*
X153247224Y-89258666D01*
G37*
G36*
X152893670Y-89612219D02*
X152716893Y-89788996D01*
X152009786Y-89081889D01*
X152186563Y-88905112D01*
X152893670Y-89612219D01*
X152893670Y-89612219D01*
G37*
G36*
X152540117Y-89965773D02*
X152363340Y-90142550D01*
X151656233Y-89435443D01*
X151833010Y-89258666D01*
X152540117Y-89965773D01*
X152540117Y-89965773D01*
G37*
G36*
X152186563Y-90319326D02*
X152009786Y-90496103D01*
X151302679Y-89788996D01*
X151479456Y-89612219D01*
X152186563Y-90319326D01*
X152186563Y-90319326D01*
G37*
G36*
X151833010Y-90672880D02*
X151656233Y-90849657D01*
X150949126Y-90142550D01*
X151125903Y-89965773D01*
X151833010Y-90672880D01*
X151833010Y-90672880D01*
G37*
G36*
X151479457Y-91026433D02*
X151302680Y-91203210D01*
X150595573Y-90496103D01*
X150772350Y-90319326D01*
X151479457Y-91026433D01*
X151479457Y-91026433D01*
G37*
G36*
X151125903Y-91379986D02*
X150949126Y-91556763D01*
X150242019Y-90849656D01*
X150418796Y-90672879D01*
X151125903Y-91379986D01*
X151125903Y-91379986D01*
G37*
G36*
X150772350Y-91733540D02*
X150595573Y-91910317D01*
X149888466Y-91203210D01*
X150065243Y-91026433D01*
X150772350Y-91733540D01*
X150772350Y-91733540D01*
G37*
G36*
X150418796Y-92087093D02*
X150242019Y-92263870D01*
X149534912Y-91556763D01*
X149711689Y-91379986D01*
X150418796Y-92087093D01*
X150418796Y-92087093D01*
G37*
G36*
X150065243Y-92440647D02*
X149888466Y-92617424D01*
X149181359Y-91910317D01*
X149358136Y-91733540D01*
X150065243Y-92440647D01*
X150065243Y-92440647D01*
G37*
G36*
X149711690Y-92794200D02*
X149534913Y-92970977D01*
X148827806Y-92263870D01*
X149004583Y-92087093D01*
X149711690Y-92794200D01*
X149711690Y-92794200D01*
G37*
G36*
X149358136Y-93147753D02*
X149181359Y-93324530D01*
X148474252Y-92617423D01*
X148651029Y-92440646D01*
X149358136Y-93147753D01*
X149358136Y-93147753D01*
G37*
G36*
X149004583Y-93501307D02*
X148827806Y-93678084D01*
X148120699Y-92970977D01*
X148297476Y-92794200D01*
X149004583Y-93501307D01*
X149004583Y-93501307D01*
G37*
M02*
