G04 #@! TF.FileFunction,Legend,Bot*
%FSLAX46Y46*%
G04 Gerber Fmt 4.6, Leading zero omitted, Abs format (unit mm)*
G04 Created by KiCad (PCBNEW 4.0.7) date 02/22/18 18:04:52*
%MOMM*%
%LPD*%
G01*
G04 APERTURE LIST*
%ADD10C,0.100000*%
%ADD11C,0.120000*%
%ADD12C,0.150000*%
G04 APERTURE END LIST*
D10*
D11*
X114494000Y-100909000D02*
X114494000Y-103569000D01*
X195894000Y-100909000D02*
X195894000Y-103569000D01*
X114494000Y-103569000D02*
X117604000Y-103569000D01*
X115064000Y-100909000D02*
X115064000Y-99389000D01*
X114494000Y-100909000D02*
X115064000Y-100909000D01*
X195324000Y-103569000D02*
X195894000Y-103569000D01*
X119124000Y-103569000D02*
X122684000Y-103569000D01*
X124204000Y-103569000D02*
X127764000Y-103569000D01*
X129284000Y-103569000D02*
X132844000Y-103569000D01*
X134364000Y-103569000D02*
X137924000Y-103569000D01*
X139444000Y-103569000D02*
X143004000Y-103569000D01*
X144524000Y-103569000D02*
X148084000Y-103569000D01*
X149604000Y-103569000D02*
X153164000Y-103569000D01*
X154684000Y-103569000D02*
X158244000Y-103569000D01*
X159764000Y-103569000D02*
X163324000Y-103569000D01*
X164844000Y-103569000D02*
X168404000Y-103569000D01*
X169924000Y-103569000D02*
X173484000Y-103569000D01*
X175004000Y-103569000D02*
X178564000Y-103569000D01*
X180084000Y-103569000D02*
X183644000Y-103569000D01*
X185164000Y-103569000D02*
X188724000Y-103569000D01*
X190244000Y-103569000D02*
X193804000Y-103569000D01*
X116584000Y-100909000D02*
X120144000Y-100909000D01*
X121664000Y-100909000D02*
X125224000Y-100909000D01*
X126744000Y-100909000D02*
X130304000Y-100909000D01*
X131824000Y-100909000D02*
X135384000Y-100909000D01*
X136904000Y-100909000D02*
X140464000Y-100909000D01*
X141984000Y-100909000D02*
X145544000Y-100909000D01*
X147064000Y-100909000D02*
X150624000Y-100909000D01*
X152144000Y-100909000D02*
X155704000Y-100909000D01*
X157224000Y-100909000D02*
X160784000Y-100909000D01*
X162304000Y-100909000D02*
X165864000Y-100909000D01*
X167384000Y-100909000D02*
X170944000Y-100909000D01*
X172464000Y-100909000D02*
X176024000Y-100909000D01*
X177544000Y-100909000D02*
X181104000Y-100909000D01*
X182624000Y-100909000D02*
X186184000Y-100909000D01*
X187704000Y-100909000D02*
X191264000Y-100909000D01*
X192784000Y-100909000D02*
X195894000Y-100909000D01*
X114494000Y-85669000D02*
X114494000Y-88329000D01*
X195894000Y-85669000D02*
X195894000Y-88329000D01*
X114494000Y-88329000D02*
X117604000Y-88329000D01*
X115064000Y-85669000D02*
X115064000Y-84149000D01*
X114494000Y-85669000D02*
X115064000Y-85669000D01*
X195324000Y-88329000D02*
X195894000Y-88329000D01*
X119124000Y-88329000D02*
X122684000Y-88329000D01*
X124204000Y-88329000D02*
X127764000Y-88329000D01*
X129284000Y-88329000D02*
X132844000Y-88329000D01*
X134364000Y-88329000D02*
X137924000Y-88329000D01*
X139444000Y-88329000D02*
X143004000Y-88329000D01*
X144524000Y-88329000D02*
X148084000Y-88329000D01*
X149604000Y-88329000D02*
X153164000Y-88329000D01*
X154684000Y-88329000D02*
X158244000Y-88329000D01*
X159764000Y-88329000D02*
X163324000Y-88329000D01*
X164844000Y-88329000D02*
X168404000Y-88329000D01*
X169924000Y-88329000D02*
X173484000Y-88329000D01*
X175004000Y-88329000D02*
X178564000Y-88329000D01*
X180084000Y-88329000D02*
X183644000Y-88329000D01*
X185164000Y-88329000D02*
X188724000Y-88329000D01*
X190244000Y-88329000D02*
X193804000Y-88329000D01*
X116584000Y-85669000D02*
X120144000Y-85669000D01*
X121664000Y-85669000D02*
X125224000Y-85669000D01*
X126744000Y-85669000D02*
X130304000Y-85669000D01*
X131824000Y-85669000D02*
X135384000Y-85669000D01*
X136904000Y-85669000D02*
X140464000Y-85669000D01*
X141984000Y-85669000D02*
X145544000Y-85669000D01*
X147064000Y-85669000D02*
X150624000Y-85669000D01*
X152144000Y-85669000D02*
X155704000Y-85669000D01*
X157224000Y-85669000D02*
X160784000Y-85669000D01*
X162304000Y-85669000D02*
X165864000Y-85669000D01*
X167384000Y-85669000D02*
X170944000Y-85669000D01*
X172464000Y-85669000D02*
X176024000Y-85669000D01*
X177544000Y-85669000D02*
X181104000Y-85669000D01*
X182624000Y-85669000D02*
X186184000Y-85669000D01*
X187704000Y-85669000D02*
X191264000Y-85669000D01*
X192784000Y-85669000D02*
X195894000Y-85669000D01*
D12*
X112946381Y-101905667D02*
X113660667Y-101905667D01*
X113803524Y-101858047D01*
X113898762Y-101762809D01*
X113946381Y-101619952D01*
X113946381Y-101524714D01*
X113041619Y-102334238D02*
X112994000Y-102381857D01*
X112946381Y-102477095D01*
X112946381Y-102715191D01*
X112994000Y-102810429D01*
X113041619Y-102858048D01*
X113136857Y-102905667D01*
X113232095Y-102905667D01*
X113374952Y-102858048D01*
X113946381Y-102286619D01*
X113946381Y-102905667D01*
X112946381Y-86665667D02*
X113660667Y-86665667D01*
X113803524Y-86618047D01*
X113898762Y-86522809D01*
X113946381Y-86379952D01*
X113946381Y-86284714D01*
X112946381Y-87046619D02*
X112946381Y-87665667D01*
X113327333Y-87332333D01*
X113327333Y-87475191D01*
X113374952Y-87570429D01*
X113422571Y-87618048D01*
X113517810Y-87665667D01*
X113755905Y-87665667D01*
X113851143Y-87618048D01*
X113898762Y-87570429D01*
X113946381Y-87475191D01*
X113946381Y-87189476D01*
X113898762Y-87094238D01*
X113851143Y-87046619D01*
M02*
