G04 #@! TF.FileFunction,Copper,L2,Bot,Signal*
%FSLAX46Y46*%
G04 Gerber Fmt 4.6, Leading zero omitted, Abs format (unit mm)*
G04 Created by KiCad (PCBNEW 4.0.7) date 02/22/18 18:04:52*
%MOMM*%
%LPD*%
G01*
G04 APERTURE LIST*
%ADD10C,0.100000*%
%ADD11R,1.000000X2.510000*%
%ADD12C,0.635000*%
%ADD13C,0.203200*%
G04 APERTURE END LIST*
D10*
D11*
X115824000Y-100584000D03*
X120904000Y-100584000D03*
X125984000Y-100584000D03*
X131064000Y-100584000D03*
X136144000Y-100584000D03*
X141224000Y-100584000D03*
X146304000Y-100584000D03*
X151384000Y-100584000D03*
X156464000Y-100584000D03*
X161544000Y-100584000D03*
X166624000Y-100584000D03*
X171704000Y-100584000D03*
X176784000Y-100584000D03*
X181864000Y-100584000D03*
X186944000Y-100584000D03*
X192024000Y-100584000D03*
X118364000Y-103894000D03*
X123444000Y-103894000D03*
X128524000Y-103894000D03*
X133604000Y-103894000D03*
X138684000Y-103894000D03*
X143764000Y-103894000D03*
X148844000Y-103894000D03*
X153924000Y-103894000D03*
X159004000Y-103894000D03*
X164084000Y-103894000D03*
X169164000Y-103894000D03*
X174244000Y-103894000D03*
X179324000Y-103894000D03*
X184404000Y-103894000D03*
X189484000Y-103894000D03*
X194564000Y-103894000D03*
X115824000Y-85344000D03*
X120904000Y-85344000D03*
X125984000Y-85344000D03*
X131064000Y-85344000D03*
X136144000Y-85344000D03*
X141224000Y-85344000D03*
X146304000Y-85344000D03*
X151384000Y-85344000D03*
X156464000Y-85344000D03*
X161544000Y-85344000D03*
X166624000Y-85344000D03*
X171704000Y-85344000D03*
X176784000Y-85344000D03*
X181864000Y-85344000D03*
X186944000Y-85344000D03*
X192024000Y-85344000D03*
X118364000Y-88654000D03*
X123444000Y-88654000D03*
X128524000Y-88654000D03*
X133604000Y-88654000D03*
X138684000Y-88654000D03*
X143764000Y-88654000D03*
X148844000Y-88654000D03*
X153924000Y-88654000D03*
X159004000Y-88654000D03*
X164084000Y-88654000D03*
X169164000Y-88654000D03*
X174244000Y-88654000D03*
X179324000Y-88654000D03*
X184404000Y-88654000D03*
X189484000Y-88654000D03*
X194564000Y-88654000D03*
D12*
X115824000Y-100584000D03*
X118364000Y-103894000D03*
X120904000Y-100584000D03*
X123444000Y-103894000D03*
X125984000Y-100584000D03*
X128524000Y-103894000D03*
X131064000Y-100584000D03*
X133604000Y-103894000D03*
X136065148Y-100539008D03*
X138684000Y-103894000D03*
X141228917Y-100515536D03*
X143669971Y-103918929D03*
X147505013Y-101509130D03*
X148846723Y-103899671D03*
X151655084Y-102912385D03*
X153912684Y-103752981D03*
X133604000Y-88654000D03*
X131064000Y-85344000D03*
D13*
X147505013Y-101509130D02*
X147229130Y-101509130D01*
X147229130Y-101509130D02*
X146304000Y-100584000D01*
X151655084Y-102912385D02*
X151655084Y-100855084D01*
X151655084Y-100855084D02*
X151384000Y-100584000D01*
X154017600Y-88747600D02*
X153924000Y-88654000D01*
X151384000Y-85344000D02*
X151384000Y-86099000D01*
X146558000Y-85598000D02*
X146304000Y-85344000D01*
X143908400Y-88654000D02*
X143764000Y-88654000D01*
X141224000Y-86182200D02*
X141224000Y-85344000D01*
M02*
