%TF.GenerationSoftware,KiCad,Pcbnew,7.0.1*%
%TF.CreationDate,2023-10-03T11:55:04-04:00*%
%TF.ProjectId,CAN Adapter,43414e20-4164-4617-9074-65722e6b6963,rev?*%
%TF.SameCoordinates,Original*%
%TF.FileFunction,Copper,L1,Top*%
%TF.FilePolarity,Positive*%
%FSLAX46Y46*%
G04 Gerber Fmt 4.6, Leading zero omitted, Abs format (unit mm)*
G04 Created by KiCad (PCBNEW 7.0.1) date 2023-10-03 11:55:04*
%MOMM*%
%LPD*%
G01*
G04 APERTURE LIST*
G04 Aperture macros list*
%AMRoundRect*
0 Rectangle with rounded corners*
0 $1 Rounding radius*
0 $2 $3 $4 $5 $6 $7 $8 $9 X,Y pos of 4 corners*
0 Add a 4 corners polygon primitive as box body*
4,1,4,$2,$3,$4,$5,$6,$7,$8,$9,$2,$3,0*
0 Add four circle primitives for the rounded corners*
1,1,$1+$1,$2,$3*
1,1,$1+$1,$4,$5*
1,1,$1+$1,$6,$7*
1,1,$1+$1,$8,$9*
0 Add four rect primitives between the rounded corners*
20,1,$1+$1,$2,$3,$4,$5,0*
20,1,$1+$1,$4,$5,$6,$7,0*
20,1,$1+$1,$6,$7,$8,$9,0*
20,1,$1+$1,$8,$9,$2,$3,0*%
G04 Aperture macros list end*
%TA.AperFunction,ComponentPad*%
%ADD10R,1.700000X1.700000*%
%TD*%
%TA.AperFunction,ComponentPad*%
%ADD11O,1.700000X1.700000*%
%TD*%
%TA.AperFunction,SMDPad,CuDef*%
%ADD12R,3.480000X1.846667*%
%TD*%
%TA.AperFunction,SMDPad,CuDef*%
%ADD13RoundRect,0.237500X0.250000X0.237500X-0.250000X0.237500X-0.250000X-0.237500X0.250000X-0.237500X0*%
%TD*%
%TA.AperFunction,ComponentPad*%
%ADD14R,1.500000X1.500000*%
%TD*%
%TA.AperFunction,ComponentPad*%
%ADD15C,1.500000*%
%TD*%
%TA.AperFunction,ComponentPad*%
%ADD16C,3.000000*%
%TD*%
%TA.AperFunction,Conductor*%
%ADD17C,0.250000*%
%TD*%
G04 APERTURE END LIST*
D10*
%TO.P,JP1,1,A*%
%TO.N,Net-(JP1-A)*%
X145542000Y-91948000D03*
D11*
%TO.P,JP1,2,B*%
%TO.N,/CAN_L*%
X145542000Y-89408000D03*
%TD*%
D10*
%TO.P,JP2,1,A*%
%TO.N,Net-(JP2-A)*%
X151638000Y-91948000D03*
D11*
%TO.P,JP2,2,B*%
%TO.N,/CAN_H*%
X151638000Y-89408000D03*
%TD*%
D12*
%TO.P,J1,1,1*%
%TO.N,unconnected-(J1-Pad1)*%
X158037500Y-84376000D03*
%TO.P,J1,2,2*%
%TO.N,/CAN_L*%
X158037500Y-87146000D03*
%TO.P,J1,3,3*%
%TO.N,/CAN_GND*%
X158037500Y-89916000D03*
%TO.P,J1,4,4*%
%TO.N,unconnected-(J1-Pad4)*%
X158037500Y-92686000D03*
%TO.P,J1,5,5*%
%TO.N,unconnected-(J1-Pad5)*%
X158037500Y-95456000D03*
%TD*%
D13*
%TO.P,R1,1*%
%TO.N,Net-(JP2-A)*%
X149502500Y-94996000D03*
%TO.P,R1,2*%
%TO.N,Net-(JP1-A)*%
X147677500Y-94996000D03*
%TD*%
D14*
%TO.P,J2,1*%
%TO.N,/CAN_L*%
X137489000Y-85471000D03*
D15*
%TO.P,J2,2*%
%TO.N,/CAN_H*%
X140029000Y-86741000D03*
%TO.P,J2,3*%
%TO.N,/CAN_GND*%
X137489000Y-88011000D03*
%TO.P,J2,4*%
%TO.N,unconnected-(J2-Pad4)*%
X140029000Y-89281000D03*
%TO.P,J2,5*%
%TO.N,unconnected-(J2-Pad5)*%
X137489000Y-90551000D03*
%TO.P,J2,6*%
%TO.N,unconnected-(J2-Pad6)*%
X140029000Y-91821000D03*
%TO.P,J2,7*%
%TO.N,unconnected-(J2-Pad7)*%
X137489000Y-93091000D03*
%TO.P,J2,8*%
%TO.N,unconnected-(J2-Pad8)*%
X140029000Y-94361000D03*
D16*
%TO.P,J2,SH*%
%TO.N,unconnected-(J2-PadSH)*%
X128089000Y-82146000D03*
X128089000Y-97686000D03*
%TD*%
D17*
%TO.N,/CAN_L*%
X137489000Y-85471000D02*
X147320000Y-85471000D01*
X145542000Y-89408000D02*
X145542000Y-87249000D01*
X153289000Y-85471000D02*
X154964000Y-87146000D01*
X147320000Y-85471000D02*
X153289000Y-85471000D01*
X145542000Y-87249000D02*
X147320000Y-85471000D01*
X154964000Y-87146000D02*
X158037500Y-87146000D01*
%TO.N,/CAN_GND*%
X157180500Y-90773000D02*
X158037500Y-89916000D01*
X143605000Y-90773000D02*
X157180500Y-90773000D01*
X140843000Y-88011000D02*
X143605000Y-90773000D01*
X137489000Y-88011000D02*
X140843000Y-88011000D01*
%TO.N,Net-(JP1-A)*%
X145542000Y-91948000D02*
X145542000Y-92860500D01*
X145542000Y-92860500D02*
X147677500Y-94996000D01*
%TO.N,Net-(JP2-A)*%
X151638000Y-91948000D02*
X151638000Y-92860500D01*
X151638000Y-92860500D02*
X149502500Y-94996000D01*
%TD*%
M02*
