M48
;DRILL file {KiCad 4.0.7} date 01/06/18 13:46:45
;FORMAT={-:-/ absolute / inch / decimal}
FMAT,2
INCH,TZ
T1C0.039
%
G90
G05
M72
T1
X5.84Y-4.14
X5.84Y-4.24
X5.84Y-4.34
X5.84Y-4.44
X5.84Y-4.54
X5.84Y-4.64
X5.84Y-4.74
X5.84Y-4.84
X5.84Y-4.94
X5.84Y-5.04
X5.84Y-5.14
X5.84Y-5.24
X5.84Y-5.34
X6.09Y-4.14
X6.09Y-4.24
X6.09Y-4.34
X6.09Y-4.44
X6.09Y-4.54
X6.09Y-4.64
X6.09Y-4.74
X6.09Y-4.84
X6.09Y-4.94
X6.09Y-5.04
X6.09Y-5.14
X6.09Y-5.24
X6.09Y-5.34
X6.19Y-4.14
X6.19Y-4.24
X6.19Y-4.34
X6.19Y-4.44
X6.19Y-4.54
X6.19Y-4.64
X6.19Y-4.74
X6.19Y-4.84
X6.19Y-4.94
X6.19Y-5.04
X6.19Y-5.14
X6.19Y-5.24
X6.19Y-5.34
X6.44Y-4.14
X6.44Y-4.24
X6.44Y-4.34
X6.44Y-4.44
X6.44Y-4.54
X6.44Y-4.64
X6.44Y-4.74
X6.44Y-4.84
X6.44Y-4.94
X6.44Y-5.04
X6.44Y-5.14
X6.44Y-5.24
X6.44Y-5.34
T0
M30
