G04 #@! TF.FileFunction,Legend,Top*
%FSLAX46Y46*%
G04 Gerber Fmt 4.6, Leading zero omitted, Abs format (unit mm)*
G04 Created by KiCad (PCBNEW 4.0.6) date 12/15/17 17:43:23*
%MOMM*%
%LPD*%
G01*
G04 APERTURE LIST*
%ADD10C,0.101600*%
%ADD11C,0.152400*%
%ADD12C,0.228600*%
%ADD13C,0.120000*%
%ADD14C,0.150000*%
G04 APERTURE END LIST*
D10*
D11*
X130782788Y-110783914D02*
X130782788Y-110021914D01*
X130964216Y-110021914D01*
X131073073Y-110058200D01*
X131145645Y-110130771D01*
X131181930Y-110203343D01*
X131218216Y-110348486D01*
X131218216Y-110457343D01*
X131181930Y-110602486D01*
X131145645Y-110675057D01*
X131073073Y-110747629D01*
X130964216Y-110783914D01*
X130782788Y-110783914D01*
X131871359Y-110275914D02*
X131871359Y-110783914D01*
X131544788Y-110275914D02*
X131544788Y-110675057D01*
X131581073Y-110747629D01*
X131653645Y-110783914D01*
X131762502Y-110783914D01*
X131835073Y-110747629D01*
X131871359Y-110711343D01*
X132560788Y-110783914D02*
X132560788Y-110384771D01*
X132524502Y-110312200D01*
X132451931Y-110275914D01*
X132306788Y-110275914D01*
X132234217Y-110312200D01*
X132560788Y-110747629D02*
X132488217Y-110783914D01*
X132306788Y-110783914D01*
X132234217Y-110747629D01*
X132197931Y-110675057D01*
X132197931Y-110602486D01*
X132234217Y-110529914D01*
X132306788Y-110493629D01*
X132488217Y-110493629D01*
X132560788Y-110457343D01*
X133032503Y-110783914D02*
X132959931Y-110747629D01*
X132923646Y-110675057D01*
X132923646Y-110021914D01*
X134338788Y-110783914D02*
X134084788Y-110421057D01*
X133903360Y-110783914D02*
X133903360Y-110021914D01*
X134193645Y-110021914D01*
X134266217Y-110058200D01*
X134302502Y-110094486D01*
X134338788Y-110167057D01*
X134338788Y-110275914D01*
X134302502Y-110348486D01*
X134266217Y-110384771D01*
X134193645Y-110421057D01*
X133903360Y-110421057D01*
X134883074Y-110021914D02*
X134883074Y-110566200D01*
X134846788Y-110675057D01*
X134774217Y-110747629D01*
X134665360Y-110783914D01*
X134592788Y-110783914D01*
X135245931Y-110493629D02*
X135826502Y-110493629D01*
X136515931Y-110275914D02*
X136515931Y-110783914D01*
X136334502Y-109985629D02*
X136153074Y-110529914D01*
X136624788Y-110529914D01*
X137277931Y-110021914D02*
X136915074Y-110021914D01*
X136878788Y-110384771D01*
X136915074Y-110348486D01*
X136987645Y-110312200D01*
X137169074Y-110312200D01*
X137241645Y-110348486D01*
X137277931Y-110384771D01*
X137314216Y-110457343D01*
X137314216Y-110638771D01*
X137277931Y-110711343D01*
X137241645Y-110747629D01*
X137169074Y-110783914D01*
X136987645Y-110783914D01*
X136915074Y-110747629D01*
X136878788Y-110711343D01*
X138475359Y-110384771D02*
X138584216Y-110421057D01*
X138620501Y-110457343D01*
X138656787Y-110529914D01*
X138656787Y-110638771D01*
X138620501Y-110711343D01*
X138584216Y-110747629D01*
X138511644Y-110783914D01*
X138221359Y-110783914D01*
X138221359Y-110021914D01*
X138475359Y-110021914D01*
X138547930Y-110058200D01*
X138584216Y-110094486D01*
X138620501Y-110167057D01*
X138620501Y-110239629D01*
X138584216Y-110312200D01*
X138547930Y-110348486D01*
X138475359Y-110384771D01*
X138221359Y-110384771D01*
X138983359Y-110783914D02*
X138983359Y-110275914D01*
X138983359Y-110421057D02*
X139019644Y-110348486D01*
X139055930Y-110312200D01*
X139128501Y-110275914D01*
X139201073Y-110275914D01*
X139745358Y-110747629D02*
X139672787Y-110783914D01*
X139527644Y-110783914D01*
X139455073Y-110747629D01*
X139418787Y-110675057D01*
X139418787Y-110384771D01*
X139455073Y-110312200D01*
X139527644Y-110275914D01*
X139672787Y-110275914D01*
X139745358Y-110312200D01*
X139781644Y-110384771D01*
X139781644Y-110457343D01*
X139418787Y-110529914D01*
X140434787Y-110783914D02*
X140434787Y-110384771D01*
X140398501Y-110312200D01*
X140325930Y-110275914D01*
X140180787Y-110275914D01*
X140108216Y-110312200D01*
X140434787Y-110747629D02*
X140362216Y-110783914D01*
X140180787Y-110783914D01*
X140108216Y-110747629D01*
X140071930Y-110675057D01*
X140071930Y-110602486D01*
X140108216Y-110529914D01*
X140180787Y-110493629D01*
X140362216Y-110493629D01*
X140434787Y-110457343D01*
X140797645Y-110783914D02*
X140797645Y-110021914D01*
X140870216Y-110493629D02*
X141087930Y-110783914D01*
X141087930Y-110275914D02*
X140797645Y-110566200D01*
X141523359Y-110783914D02*
X141450787Y-110747629D01*
X141414502Y-110711343D01*
X141378216Y-110638771D01*
X141378216Y-110421057D01*
X141414502Y-110348486D01*
X141450787Y-110312200D01*
X141523359Y-110275914D01*
X141632216Y-110275914D01*
X141704787Y-110312200D01*
X141741073Y-110348486D01*
X141777359Y-110421057D01*
X141777359Y-110638771D01*
X141741073Y-110711343D01*
X141704787Y-110747629D01*
X141632216Y-110783914D01*
X141523359Y-110783914D01*
X142430502Y-110275914D02*
X142430502Y-110783914D01*
X142103931Y-110275914D02*
X142103931Y-110675057D01*
X142140216Y-110747629D01*
X142212788Y-110783914D01*
X142321645Y-110783914D01*
X142394216Y-110747629D01*
X142430502Y-110711343D01*
X142684502Y-110275914D02*
X142974788Y-110275914D01*
X142793360Y-110021914D02*
X142793360Y-110675057D01*
X142829645Y-110747629D01*
X142902217Y-110783914D01*
X142974788Y-110783914D01*
X143265074Y-110747629D02*
X143265074Y-110783914D01*
X143228789Y-110856486D01*
X143192503Y-110892771D01*
X144099645Y-110275914D02*
X144281074Y-110783914D01*
X144462502Y-110275914D01*
X144897930Y-110021914D02*
X144970502Y-110021914D01*
X145043073Y-110058200D01*
X145079359Y-110094486D01*
X145115645Y-110167057D01*
X145151930Y-110312200D01*
X145151930Y-110493629D01*
X145115645Y-110638771D01*
X145079359Y-110711343D01*
X145043073Y-110747629D01*
X144970502Y-110783914D01*
X144897930Y-110783914D01*
X144825359Y-110747629D01*
X144789073Y-110711343D01*
X144752788Y-110638771D01*
X144716502Y-110493629D01*
X144716502Y-110312200D01*
X144752788Y-110167057D01*
X144789073Y-110094486D01*
X144825359Y-110058200D01*
X144897930Y-110021914D01*
X145478502Y-110711343D02*
X145514787Y-110747629D01*
X145478502Y-110783914D01*
X145442216Y-110747629D01*
X145478502Y-110711343D01*
X145478502Y-110783914D01*
X145805073Y-110094486D02*
X145841359Y-110058200D01*
X145913930Y-110021914D01*
X146095359Y-110021914D01*
X146167930Y-110058200D01*
X146204216Y-110094486D01*
X146240501Y-110167057D01*
X146240501Y-110239629D01*
X146204216Y-110348486D01*
X145768787Y-110783914D01*
X146240501Y-110783914D01*
X146603358Y-110747629D02*
X146603358Y-110783914D01*
X146567073Y-110856486D01*
X146530787Y-110892771D01*
X147401643Y-110021914D02*
X147837072Y-110021914D01*
X147619358Y-110783914D02*
X147619358Y-110021914D01*
X148453929Y-110783914D02*
X148091072Y-110783914D01*
X148091072Y-110021914D01*
X149252214Y-110747629D02*
X149361071Y-110783914D01*
X149542500Y-110783914D01*
X149615071Y-110747629D01*
X149651357Y-110711343D01*
X149687642Y-110638771D01*
X149687642Y-110566200D01*
X149651357Y-110493629D01*
X149615071Y-110457343D01*
X149542500Y-110421057D01*
X149397357Y-110384771D01*
X149324785Y-110348486D01*
X149288500Y-110312200D01*
X149252214Y-110239629D01*
X149252214Y-110167057D01*
X149288500Y-110094486D01*
X149324785Y-110058200D01*
X149397357Y-110021914D01*
X149578785Y-110021914D01*
X149687642Y-110058200D01*
X149941642Y-110275914D02*
X150123071Y-110783914D01*
X150304499Y-110275914D02*
X150123071Y-110783914D01*
X150050499Y-110965343D01*
X150014214Y-111001629D01*
X149941642Y-111037914D01*
X150558499Y-110747629D02*
X150631070Y-110783914D01*
X150776213Y-110783914D01*
X150848785Y-110747629D01*
X150885070Y-110675057D01*
X150885070Y-110638771D01*
X150848785Y-110566200D01*
X150776213Y-110529914D01*
X150667356Y-110529914D01*
X150594785Y-110493629D01*
X150558499Y-110421057D01*
X150558499Y-110384771D01*
X150594785Y-110312200D01*
X150667356Y-110275914D01*
X150776213Y-110275914D01*
X150848785Y-110312200D01*
X151102784Y-110275914D02*
X151393070Y-110275914D01*
X151211642Y-110021914D02*
X151211642Y-110675057D01*
X151247927Y-110747629D01*
X151320499Y-110783914D01*
X151393070Y-110783914D01*
X151937356Y-110747629D02*
X151864785Y-110783914D01*
X151719642Y-110783914D01*
X151647071Y-110747629D01*
X151610785Y-110675057D01*
X151610785Y-110384771D01*
X151647071Y-110312200D01*
X151719642Y-110275914D01*
X151864785Y-110275914D01*
X151937356Y-110312200D01*
X151973642Y-110384771D01*
X151973642Y-110457343D01*
X151610785Y-110529914D01*
X152300214Y-110783914D02*
X152300214Y-110275914D01*
X152300214Y-110348486D02*
X152336499Y-110312200D01*
X152409071Y-110275914D01*
X152517928Y-110275914D01*
X152590499Y-110312200D01*
X152626785Y-110384771D01*
X152626785Y-110783914D01*
X152626785Y-110384771D02*
X152663071Y-110312200D01*
X152735642Y-110275914D01*
X152844499Y-110275914D01*
X152917071Y-110312200D01*
X152953356Y-110384771D01*
X152953356Y-110783914D01*
X153279928Y-110747629D02*
X153352499Y-110783914D01*
X153497642Y-110783914D01*
X153570214Y-110747629D01*
X153606499Y-110675057D01*
X153606499Y-110638771D01*
X153570214Y-110566200D01*
X153497642Y-110529914D01*
X153388785Y-110529914D01*
X153316214Y-110493629D01*
X153279928Y-110421057D01*
X153279928Y-110384771D01*
X153316214Y-110312200D01*
X153388785Y-110275914D01*
X153497642Y-110275914D01*
X153570214Y-110312200D01*
D12*
X139298010Y-103136097D02*
X140265629Y-103136097D01*
X139781819Y-103619907D02*
X139781819Y-102652288D01*
X136968467Y-104761093D02*
X136847514Y-104700616D01*
X136787038Y-104640140D01*
X136726562Y-104519188D01*
X136726562Y-104458712D01*
X136787038Y-104337759D01*
X136847514Y-104277283D01*
X136968467Y-104216807D01*
X137210371Y-104216807D01*
X137331324Y-104277283D01*
X137391800Y-104337759D01*
X137452276Y-104458712D01*
X137452276Y-104519188D01*
X137391800Y-104640140D01*
X137331324Y-104700616D01*
X137210371Y-104761093D01*
X136968467Y-104761093D01*
X136847514Y-104821569D01*
X136787038Y-104882045D01*
X136726562Y-105002997D01*
X136726562Y-105244902D01*
X136787038Y-105365854D01*
X136847514Y-105426331D01*
X136968467Y-105486807D01*
X137210371Y-105486807D01*
X137331324Y-105426331D01*
X137391800Y-105365854D01*
X137452276Y-105244902D01*
X137452276Y-105002997D01*
X137391800Y-104882045D01*
X137331324Y-104821569D01*
X137210371Y-104761093D01*
X139323410Y-105028397D02*
X140291029Y-105028397D01*
X136640686Y-102324507D02*
X137487352Y-102324507D01*
X136943067Y-103594507D01*
X134791324Y-104191407D02*
X134549419Y-104191407D01*
X134428467Y-104251883D01*
X134367990Y-104312359D01*
X134247038Y-104493788D01*
X134186562Y-104735693D01*
X134186562Y-105219502D01*
X134247038Y-105340454D01*
X134307514Y-105400931D01*
X134428467Y-105461407D01*
X134670371Y-105461407D01*
X134791324Y-105400931D01*
X134851800Y-105340454D01*
X134912276Y-105219502D01*
X134912276Y-104917121D01*
X134851800Y-104796169D01*
X134791324Y-104735693D01*
X134670371Y-104675216D01*
X134428467Y-104675216D01*
X134307514Y-104735693D01*
X134247038Y-104796169D01*
X134186562Y-104917121D01*
X131713086Y-102324507D02*
X132499276Y-102324507D01*
X132075943Y-102808316D01*
X132257371Y-102808316D01*
X132378324Y-102868793D01*
X132438800Y-102929269D01*
X132499276Y-103050221D01*
X132499276Y-103352602D01*
X132438800Y-103473554D01*
X132378324Y-103534031D01*
X132257371Y-103594507D01*
X131894514Y-103594507D01*
X131773562Y-103534031D01*
X131713086Y-103473554D01*
X132403724Y-104640140D02*
X132403724Y-105486807D01*
X132101343Y-104156331D02*
X131798962Y-105063473D01*
X132585152Y-105063473D01*
X134826400Y-102299107D02*
X134221638Y-102299107D01*
X134161162Y-102903869D01*
X134221638Y-102843393D01*
X134342590Y-102782916D01*
X134644971Y-102782916D01*
X134765924Y-102843393D01*
X134826400Y-102903869D01*
X134886876Y-103024821D01*
X134886876Y-103327202D01*
X134826400Y-103448154D01*
X134765924Y-103508631D01*
X134644971Y-103569107D01*
X134342590Y-103569107D01*
X134221638Y-103508631D01*
X134161162Y-103448154D01*
X129819576Y-103594507D02*
X129093862Y-103594507D01*
X129456719Y-103594507D02*
X129456719Y-102324507D01*
X129335767Y-102505935D01*
X129214814Y-102626888D01*
X129093862Y-102687364D01*
X129119262Y-104337759D02*
X129179738Y-104277283D01*
X129300690Y-104216807D01*
X129603071Y-104216807D01*
X129724024Y-104277283D01*
X129784500Y-104337759D01*
X129844976Y-104458712D01*
X129844976Y-104579664D01*
X129784500Y-104761093D01*
X129058786Y-105486807D01*
X129844976Y-105486807D01*
X126585310Y-103034497D02*
X127552929Y-103034497D01*
X127069119Y-103518307D02*
X127069119Y-102550688D01*
X126610710Y-104926797D02*
X127578329Y-104926797D01*
X157293910Y-105066497D02*
X158261529Y-105066497D01*
X157268510Y-103174197D02*
X158236129Y-103174197D01*
X157752319Y-103658007D02*
X157752319Y-102690388D01*
X154938967Y-104799193D02*
X154818014Y-104738716D01*
X154757538Y-104678240D01*
X154697062Y-104557288D01*
X154697062Y-104496812D01*
X154757538Y-104375859D01*
X154818014Y-104315383D01*
X154938967Y-104254907D01*
X155180871Y-104254907D01*
X155301824Y-104315383D01*
X155362300Y-104375859D01*
X155422776Y-104496812D01*
X155422776Y-104557288D01*
X155362300Y-104678240D01*
X155301824Y-104738716D01*
X155180871Y-104799193D01*
X154938967Y-104799193D01*
X154818014Y-104859669D01*
X154757538Y-104920145D01*
X154697062Y-105041097D01*
X154697062Y-105283002D01*
X154757538Y-105403954D01*
X154818014Y-105464431D01*
X154938967Y-105524907D01*
X155180871Y-105524907D01*
X155301824Y-105464431D01*
X155362300Y-105403954D01*
X155422776Y-105283002D01*
X155422776Y-105041097D01*
X155362300Y-104920145D01*
X155301824Y-104859669D01*
X155180871Y-104799193D01*
X154611186Y-102362607D02*
X155457852Y-102362607D01*
X154913567Y-103632607D01*
X152761824Y-104229507D02*
X152519919Y-104229507D01*
X152398967Y-104289983D01*
X152338490Y-104350459D01*
X152217538Y-104531888D01*
X152157062Y-104773793D01*
X152157062Y-105257602D01*
X152217538Y-105378554D01*
X152278014Y-105439031D01*
X152398967Y-105499507D01*
X152640871Y-105499507D01*
X152761824Y-105439031D01*
X152822300Y-105378554D01*
X152882776Y-105257602D01*
X152882776Y-104955221D01*
X152822300Y-104834269D01*
X152761824Y-104773793D01*
X152640871Y-104713316D01*
X152398967Y-104713316D01*
X152278014Y-104773793D01*
X152217538Y-104834269D01*
X152157062Y-104955221D01*
X152796900Y-102337207D02*
X152192138Y-102337207D01*
X152131662Y-102941969D01*
X152192138Y-102881493D01*
X152313090Y-102821016D01*
X152615471Y-102821016D01*
X152736424Y-102881493D01*
X152796900Y-102941969D01*
X152857376Y-103062921D01*
X152857376Y-103365302D01*
X152796900Y-103486254D01*
X152736424Y-103546731D01*
X152615471Y-103607207D01*
X152313090Y-103607207D01*
X152192138Y-103546731D01*
X152131662Y-103486254D01*
X150374224Y-104678240D02*
X150374224Y-105524907D01*
X150071843Y-104194431D02*
X149769462Y-105101573D01*
X150555652Y-105101573D01*
X149683586Y-102362607D02*
X150469776Y-102362607D01*
X150046443Y-102846416D01*
X150227871Y-102846416D01*
X150348824Y-102906893D01*
X150409300Y-102967369D01*
X150469776Y-103088321D01*
X150469776Y-103390702D01*
X150409300Y-103511654D01*
X150348824Y-103572131D01*
X150227871Y-103632607D01*
X149865014Y-103632607D01*
X149744062Y-103572131D01*
X149683586Y-103511654D01*
X147089762Y-104375859D02*
X147150238Y-104315383D01*
X147271190Y-104254907D01*
X147573571Y-104254907D01*
X147694524Y-104315383D01*
X147755000Y-104375859D01*
X147815476Y-104496812D01*
X147815476Y-104617764D01*
X147755000Y-104799193D01*
X147029286Y-105524907D01*
X147815476Y-105524907D01*
X147790076Y-103632607D02*
X147064362Y-103632607D01*
X147427219Y-103632607D02*
X147427219Y-102362607D01*
X147306267Y-102544035D01*
X147185314Y-102664988D01*
X147064362Y-102725464D01*
X144581210Y-104964897D02*
X145548829Y-104964897D01*
X144555810Y-103072597D02*
X145523429Y-103072597D01*
X145039619Y-103556407D02*
X145039619Y-102588788D01*
D13*
X142245619Y-96669983D02*
X142245619Y-90319983D01*
X126243619Y-96669983D02*
X126243619Y-90319983D01*
X142245619Y-80540983D02*
X126243619Y-80540983D01*
X142245619Y-80540983D02*
X142245619Y-87398983D01*
X126243619Y-80540983D02*
X126230919Y-87398983D01*
X142245619Y-96669983D02*
X126243619Y-96669983D01*
X158501619Y-96657283D02*
X158501619Y-90307283D01*
X142499619Y-96657283D02*
X142499619Y-90307283D01*
X158501619Y-80528283D02*
X142499619Y-80528283D01*
X158501619Y-80528283D02*
X158501619Y-87386283D01*
X142499619Y-80528283D02*
X142486919Y-87386283D01*
X158501619Y-96657283D02*
X142499619Y-96657283D01*
X158942619Y-109048983D02*
X158942619Y-106388983D01*
X146182619Y-109048983D02*
X158942619Y-109048983D01*
X146182619Y-106388983D02*
X158942619Y-106388983D01*
X146182619Y-109048983D02*
X146182619Y-106388983D01*
X144912619Y-109048983D02*
X143582619Y-109048983D01*
X143582619Y-109048983D02*
X143582619Y-107718983D01*
X141162619Y-109048983D02*
X141162619Y-106388983D01*
X128402619Y-109048983D02*
X141162619Y-109048983D01*
X128402619Y-106388983D02*
X141162619Y-106388983D01*
X128402619Y-109048983D02*
X128402619Y-106388983D01*
X127132619Y-109048983D02*
X125802619Y-109048983D01*
X125802619Y-109048983D02*
X125802619Y-107718983D01*
X158942619Y-101428983D02*
X158942619Y-98768983D01*
X146182619Y-101428983D02*
X158942619Y-101428983D01*
X146182619Y-98768983D02*
X158942619Y-98768983D01*
X146182619Y-101428983D02*
X146182619Y-98768983D01*
X144912619Y-101428983D02*
X143582619Y-101428983D01*
X143582619Y-101428983D02*
X143582619Y-100098983D01*
X141162619Y-101428983D02*
X141162619Y-98768983D01*
X128402619Y-101428983D02*
X141162619Y-101428983D01*
X128402619Y-98768983D02*
X141162619Y-98768983D01*
X128402619Y-101428983D02*
X128402619Y-98768983D01*
X127132619Y-101428983D02*
X125802619Y-101428983D01*
X125802619Y-101428983D02*
X125802619Y-100098983D01*
D14*
X134063686Y-84298664D02*
X134063686Y-85012950D01*
X134016066Y-85155807D01*
X133920828Y-85251045D01*
X133777971Y-85298664D01*
X133682733Y-85298664D01*
X134492257Y-84393902D02*
X134539876Y-84346283D01*
X134635114Y-84298664D01*
X134873210Y-84298664D01*
X134968448Y-84346283D01*
X135016067Y-84393902D01*
X135063686Y-84489140D01*
X135063686Y-84584378D01*
X135016067Y-84727235D01*
X134444638Y-85298664D01*
X135063686Y-85298664D01*
X149633886Y-83904964D02*
X149633886Y-84619250D01*
X149586266Y-84762107D01*
X149491028Y-84857345D01*
X149348171Y-84904964D01*
X149252933Y-84904964D01*
X150633886Y-84904964D02*
X150062457Y-84904964D01*
X150348171Y-84904964D02*
X150348171Y-83904964D01*
X150252933Y-84047821D01*
X150157695Y-84143059D01*
X150062457Y-84190678D01*
M02*
