M48
;DRILL file {KiCad 4.0.6} date 12/15/17 17:43:26
;FORMAT={-:-/ absolute / inch / decimal}
FMAT,2
INCH,TZ
T1C0.039
T2C0.040
T3C0.059
T4C0.062
T5C0.128
%
G90
G05
M72
T1
X5.0052Y-3.9409
X5.0052Y-4.2409
X5.1052Y-3.9409
X5.1052Y-4.2409
X5.2052Y-3.9409
X5.2052Y-4.2409
X5.3052Y-3.9409
X5.3052Y-4.2409
X5.4052Y-3.9409
X5.4052Y-4.2409
X5.5052Y-3.9409
X5.5052Y-4.2409
X5.7052Y-3.9409
X5.7052Y-4.2409
X5.8052Y-3.9409
X5.8052Y-4.2409
X5.9052Y-3.9409
X5.9052Y-4.2409
X6.0052Y-3.9409
X6.0052Y-4.2409
X6.1052Y-3.9409
X6.1052Y-4.2409
X6.2052Y-3.9409
X6.2052Y-4.2409
T2
X5.0152Y-3.7259
X5.1052Y-3.7259
X5.1452Y-3.4659
X5.1852Y-3.5359
X5.2252Y-3.4659
X5.2652Y-3.5359
X5.3052Y-3.4659
X5.3452Y-3.5359
X5.3852Y-3.4659
X5.4252Y-3.5359
X5.4652Y-3.7259
X5.5552Y-3.7259
X5.6552Y-3.7254
X5.7452Y-3.7254
X5.7852Y-3.4654
X5.8252Y-3.5354
X5.8652Y-3.4654
X5.9052Y-3.5354
X5.9452Y-3.4654
X5.9852Y-3.5354
X6.0252Y-3.4654
X6.0652Y-3.5354
X6.1052Y-3.7254
X6.1952Y-3.7254
T3
X4.9652Y-3.5009
X5.6052Y-3.5004
T4
X5.6052Y-3.5009
X6.2452Y-3.5004
T5
X5.0352Y-3.3659
X5.5352Y-3.3659
X5.6752Y-3.3654
X6.1752Y-3.3654
T0
M30
